<mxfile host="app.diagrams.net" agent="Mozilla/5.0 (Macintosh; Intel Mac OS X 10_15_7) AppleWebKit/537.36 (KHTML, like Gecko) Chrome/136.0.0.0 Safari/537.36" version="27.0.3" pages="2">
  <diagram name="Page-1" id="34BR9-FRD_Z8LFH9zrUB">
    <mxGraphModel dx="2289" dy="954" grid="1" gridSize="10" guides="1" tooltips="1" connect="1" arrows="1" fold="1" page="1" pageScale="1" pageWidth="850" pageHeight="1100" math="0" shadow="0">
      <root>
        <mxCell id="0" />
        <mxCell id="1" parent="0" />
        <mxCell id="6vHBSdDe6rCAB5LISDZy-2" value="D1" style="rounded=0;whiteSpace=wrap;html=1;fillColor=#A680B8;" vertex="1" parent="1">
          <mxGeometry x="160" y="140" width="80" height="60" as="geometry" />
        </mxCell>
        <mxCell id="6vHBSdDe6rCAB5LISDZy-3" value="D1.G1.S0" style="rounded=0;whiteSpace=wrap;html=1;fillColor=#A680B8;" vertex="1" parent="1">
          <mxGeometry x="80" y="240" width="80" height="60" as="geometry" />
        </mxCell>
        <mxCell id="6vHBSdDe6rCAB5LISDZy-4" value="D1.G2.S0" style="rounded=0;whiteSpace=wrap;html=1;fillColor=#A680B8;" vertex="1" parent="1">
          <mxGeometry x="160" y="240" width="80" height="60" as="geometry" />
        </mxCell>
        <mxCell id="6vHBSdDe6rCAB5LISDZy-5" value="D1.G3.S0" style="rounded=0;whiteSpace=wrap;html=1;fillColor=#A680B8;" vertex="1" parent="1">
          <mxGeometry x="240" y="240" width="80" height="60" as="geometry" />
        </mxCell>
        <mxCell id="6vHBSdDe6rCAB5LISDZy-6" value="D2" style="rounded=0;whiteSpace=wrap;html=1;fillColor=#A9C4EB;" vertex="1" parent="1">
          <mxGeometry x="400" y="140" width="80" height="60" as="geometry" />
        </mxCell>
        <mxCell id="6vHBSdDe6rCAB5LISDZy-7" value="D2.G1.S0" style="rounded=0;whiteSpace=wrap;html=1;fillColor=#A9C4EB;" vertex="1" parent="1">
          <mxGeometry x="320" y="240" width="80" height="60" as="geometry" />
        </mxCell>
        <mxCell id="6vHBSdDe6rCAB5LISDZy-8" value="D2.G2.S0" style="rounded=0;whiteSpace=wrap;html=1;fillColor=#A9C4EB;" vertex="1" parent="1">
          <mxGeometry x="400" y="240" width="80" height="60" as="geometry" />
        </mxCell>
        <mxCell id="6vHBSdDe6rCAB5LISDZy-9" value="D2.G3.S0" style="rounded=0;whiteSpace=wrap;html=1;fillColor=#A9C4EB;" vertex="1" parent="1">
          <mxGeometry x="480" y="240" width="80" height="60" as="geometry" />
        </mxCell>
        <mxCell id="6vHBSdDe6rCAB5LISDZy-10" value="" style="shape=flexArrow;endArrow=classic;html=1;rounded=0;entryX=0.5;entryY=0;entryDx=0;entryDy=0;fillColor=#e1d5e7;strokeColor=#9673a6;" edge="1" parent="1" target="6vHBSdDe6rCAB5LISDZy-4">
          <mxGeometry width="50" height="50" relative="1" as="geometry">
            <mxPoint x="200" y="210" as="sourcePoint" />
            <mxPoint x="250" y="160" as="targetPoint" />
          </mxGeometry>
        </mxCell>
        <mxCell id="6vHBSdDe6rCAB5LISDZy-11" value="" style="shape=flexArrow;endArrow=classic;html=1;rounded=0;entryX=0.5;entryY=0;entryDx=0;entryDy=0;fillColor=#dae8fc;strokeColor=#6c8ebf;" edge="1" parent="1" target="6vHBSdDe6rCAB5LISDZy-8">
          <mxGeometry width="50" height="50" relative="1" as="geometry">
            <mxPoint x="440" y="210" as="sourcePoint" />
            <mxPoint x="210" y="250" as="targetPoint" />
          </mxGeometry>
        </mxCell>
        <mxCell id="6vHBSdDe6rCAB5LISDZy-15" value="DB" style="rounded=0;whiteSpace=wrap;html=1;fillColor=#f8cecc;strokeColor=#b85450;" vertex="1" parent="1">
          <mxGeometry x="640" y="140" width="80" height="60" as="geometry" />
        </mxCell>
        <mxCell id="6vHBSdDe6rCAB5LISDZy-16" value="DB.G1.S0" style="rounded=0;whiteSpace=wrap;html=1;fillColor=#f8cecc;strokeColor=#b85450;" vertex="1" parent="1">
          <mxGeometry x="560" y="240" width="80" height="60" as="geometry" />
        </mxCell>
        <mxCell id="6vHBSdDe6rCAB5LISDZy-17" value="DB.G2.S0" style="rounded=0;whiteSpace=wrap;html=1;fillColor=#f8cecc;strokeColor=#b85450;" vertex="1" parent="1">
          <mxGeometry x="640" y="240" width="80" height="60" as="geometry" />
        </mxCell>
        <mxCell id="6vHBSdDe6rCAB5LISDZy-18" value="DB.G3.S0" style="rounded=0;whiteSpace=wrap;html=1;fillColor=#f8cecc;strokeColor=#b85450;" vertex="1" parent="1">
          <mxGeometry x="720" y="240" width="80" height="60" as="geometry" />
        </mxCell>
        <mxCell id="6vHBSdDe6rCAB5LISDZy-19" value="" style="shape=flexArrow;endArrow=classic;html=1;rounded=0;entryX=0.5;entryY=0;entryDx=0;entryDy=0;fillColor=#f8cecc;strokeColor=#b85450;" edge="1" parent="1" target="6vHBSdDe6rCAB5LISDZy-17">
          <mxGeometry width="50" height="50" relative="1" as="geometry">
            <mxPoint x="680" y="210" as="sourcePoint" />
            <mxPoint x="450" y="250" as="targetPoint" />
          </mxGeometry>
        </mxCell>
        <mxCell id="6vHBSdDe6rCAB5LISDZy-20" value="D1.G1.Sk" style="rounded=0;whiteSpace=wrap;html=1;fillColor=#A680B8;" vertex="1" parent="1">
          <mxGeometry x="80" y="440" width="80" height="60" as="geometry" />
        </mxCell>
        <mxCell id="6vHBSdDe6rCAB5LISDZy-21" value="D1.G2.Sk" style="rounded=0;whiteSpace=wrap;html=1;fillColor=#A680B8;" vertex="1" parent="1">
          <mxGeometry x="160" y="440" width="80" height="60" as="geometry" />
        </mxCell>
        <mxCell id="6vHBSdDe6rCAB5LISDZy-22" value="D1.G3.Sk" style="rounded=0;whiteSpace=wrap;html=1;fillColor=#A680B8;" vertex="1" parent="1">
          <mxGeometry x="240" y="440" width="80" height="60" as="geometry" />
        </mxCell>
        <mxCell id="6vHBSdDe6rCAB5LISDZy-23" value="D2.G1.Sk" style="rounded=0;whiteSpace=wrap;html=1;fillColor=#A9C4EB;" vertex="1" parent="1">
          <mxGeometry x="320" y="440" width="80" height="60" as="geometry" />
        </mxCell>
        <mxCell id="6vHBSdDe6rCAB5LISDZy-42" value="" style="edgeStyle=orthogonalEdgeStyle;rounded=0;orthogonalLoop=1;jettySize=auto;html=1;" edge="1" parent="1" source="6vHBSdDe6rCAB5LISDZy-24" target="6vHBSdDe6rCAB5LISDZy-29">
          <mxGeometry relative="1" as="geometry" />
        </mxCell>
        <mxCell id="6vHBSdDe6rCAB5LISDZy-24" value="D2.G2.Sk" style="rounded=0;whiteSpace=wrap;html=1;fillColor=#A9C4EB;" vertex="1" parent="1">
          <mxGeometry x="400" y="440" width="80" height="60" as="geometry" />
        </mxCell>
        <mxCell id="6vHBSdDe6rCAB5LISDZy-25" value="D2.G3.Sk" style="rounded=0;whiteSpace=wrap;html=1;fillColor=#A9C4EB;" vertex="1" parent="1">
          <mxGeometry x="480" y="440" width="80" height="60" as="geometry" />
        </mxCell>
        <mxCell id="6vHBSdDe6rCAB5LISDZy-26" value="DB.G1.Sk" style="rounded=0;whiteSpace=wrap;html=1;fillColor=#f8cecc;strokeColor=#b85450;" vertex="1" parent="1">
          <mxGeometry x="560" y="440" width="80" height="60" as="geometry" />
        </mxCell>
        <mxCell id="6vHBSdDe6rCAB5LISDZy-27" value="DB.G2.Sk" style="rounded=0;whiteSpace=wrap;html=1;fillColor=#f8cecc;strokeColor=#b85450;" vertex="1" parent="1">
          <mxGeometry x="640" y="440" width="80" height="60" as="geometry" />
        </mxCell>
        <mxCell id="6vHBSdDe6rCAB5LISDZy-28" value="DB.G3.Sk" style="rounded=0;whiteSpace=wrap;html=1;fillColor=#f8cecc;strokeColor=#b85450;" vertex="1" parent="1">
          <mxGeometry x="720" y="440" width="80" height="60" as="geometry" />
        </mxCell>
        <mxCell id="6vHBSdDe6rCAB5LISDZy-29" value="&lt;b&gt;Policy&lt;/b&gt;" style="shape=process;whiteSpace=wrap;html=1;backgroundOutline=1;" vertex="1" parent="1">
          <mxGeometry x="380" y="340" width="120" height="60" as="geometry" />
        </mxCell>
        <mxCell id="6vHBSdDe6rCAB5LISDZy-30" value="" style="shape=flexArrow;endArrow=classic;html=1;rounded=0;entryX=0.5;entryY=0;entryDx=0;entryDy=0;fillColor=#dae8fc;strokeColor=#6c8ebf;" edge="1" parent="1" target="6vHBSdDe6rCAB5LISDZy-29">
          <mxGeometry width="50" height="50" relative="1" as="geometry">
            <mxPoint x="440" y="310" as="sourcePoint" />
            <mxPoint x="450" y="250" as="targetPoint" />
          </mxGeometry>
        </mxCell>
        <mxCell id="6vHBSdDe6rCAB5LISDZy-31" value="" style="shape=flexArrow;endArrow=classic;html=1;rounded=0;fillColor=#e1d5e7;strokeColor=#9673a6;" edge="1" parent="1">
          <mxGeometry width="50" height="50" relative="1" as="geometry">
            <mxPoint x="200" y="310" as="sourcePoint" />
            <mxPoint x="370" y="360" as="targetPoint" />
          </mxGeometry>
        </mxCell>
        <mxCell id="6vHBSdDe6rCAB5LISDZy-33" value="" style="shape=flexArrow;endArrow=classic;html=1;rounded=0;fillColor=#f8cecc;strokeColor=#b85450;" edge="1" parent="1">
          <mxGeometry width="50" height="50" relative="1" as="geometry">
            <mxPoint x="680" y="310" as="sourcePoint" />
            <mxPoint x="510" y="360" as="targetPoint" />
          </mxGeometry>
        </mxCell>
        <mxCell id="6vHBSdDe6rCAB5LISDZy-34" value="" style="shape=flexArrow;endArrow=classic;html=1;rounded=0;fillColor=#e1d5e7;strokeColor=#9673a6;" edge="1" parent="1">
          <mxGeometry width="50" height="50" relative="1" as="geometry">
            <mxPoint x="370" y="390" as="sourcePoint" />
            <mxPoint x="210" y="430" as="targetPoint" />
          </mxGeometry>
        </mxCell>
        <mxCell id="6vHBSdDe6rCAB5LISDZy-35" value="" style="shape=flexArrow;endArrow=classic;html=1;rounded=0;fillColor=#dae8fc;strokeColor=#6c8ebf;" edge="1" parent="1">
          <mxGeometry width="50" height="50" relative="1" as="geometry">
            <mxPoint x="440" y="405" as="sourcePoint" />
            <mxPoint x="440" y="435" as="targetPoint" />
          </mxGeometry>
        </mxCell>
        <mxCell id="6vHBSdDe6rCAB5LISDZy-36" value="" style="shape=flexArrow;endArrow=classic;html=1;rounded=0;fillColor=#f8cecc;strokeColor=#b85450;" edge="1" parent="1">
          <mxGeometry width="50" height="50" relative="1" as="geometry">
            <mxPoint x="510" y="380" as="sourcePoint" />
            <mxPoint x="670" y="430" as="targetPoint" />
          </mxGeometry>
        </mxCell>
        <mxCell id="6vHBSdDe6rCAB5LISDZy-37" value="Group Mean &amp;amp; StD" style="shape=process;whiteSpace=wrap;html=1;backgroundOutline=1;" vertex="1" parent="1">
          <mxGeometry x="380" y="550" width="120" height="60" as="geometry" />
        </mxCell>
        <mxCell id="6vHBSdDe6rCAB5LISDZy-38" value="D1.G.Mean" style="rounded=0;whiteSpace=wrap;html=1;fillColor=#A680B8;" vertex="1" parent="1">
          <mxGeometry x="120" y="650" width="80" height="60" as="geometry" />
        </mxCell>
        <mxCell id="6vHBSdDe6rCAB5LISDZy-39" value="" style="shape=flexArrow;endArrow=classic;html=1;rounded=0;fillColor=#e1d5e7;strokeColor=#9673a6;" edge="1" parent="1">
          <mxGeometry width="50" height="50" relative="1" as="geometry">
            <mxPoint x="200" y="510" as="sourcePoint" />
            <mxPoint x="370" y="560" as="targetPoint" />
          </mxGeometry>
        </mxCell>
        <mxCell id="6vHBSdDe6rCAB5LISDZy-40" value="" style="shape=flexArrow;endArrow=classic;html=1;rounded=0;fillColor=#e1d5e7;strokeColor=#9673a6;" edge="1" parent="1">
          <mxGeometry width="50" height="50" relative="1" as="geometry">
            <mxPoint x="370" y="600" as="sourcePoint" />
            <mxPoint x="210" y="640" as="targetPoint" />
          </mxGeometry>
        </mxCell>
        <mxCell id="6vHBSdDe6rCAB5LISDZy-41" value="D2.G.Mean" style="rounded=0;whiteSpace=wrap;html=1;fillColor=#A9C4EB;" vertex="1" parent="1">
          <mxGeometry x="360" y="650" width="80" height="60" as="geometry" />
        </mxCell>
        <mxCell id="6vHBSdDe6rCAB5LISDZy-43" value="" style="shape=flexArrow;endArrow=classic;html=1;rounded=0;fillColor=#dae8fc;strokeColor=#6c8ebf;" edge="1" parent="1">
          <mxGeometry width="50" height="50" relative="1" as="geometry">
            <mxPoint x="441" y="514" as="sourcePoint" />
            <mxPoint x="441" y="544" as="targetPoint" />
          </mxGeometry>
        </mxCell>
        <mxCell id="6vHBSdDe6rCAB5LISDZy-44" value="" style="shape=flexArrow;endArrow=classic;html=1;rounded=0;fillColor=#dae8fc;strokeColor=#6c8ebf;" edge="1" parent="1">
          <mxGeometry width="50" height="50" relative="1" as="geometry">
            <mxPoint x="440" y="615" as="sourcePoint" />
            <mxPoint x="440" y="645" as="targetPoint" />
          </mxGeometry>
        </mxCell>
        <mxCell id="6vHBSdDe6rCAB5LISDZy-45" value="DB.G.Mean" style="rounded=0;whiteSpace=wrap;html=1;fillColor=#f8cecc;strokeColor=#b85450;" vertex="1" parent="1">
          <mxGeometry x="600" y="650" width="80" height="60" as="geometry" />
        </mxCell>
        <mxCell id="6vHBSdDe6rCAB5LISDZy-46" value="" style="shape=flexArrow;endArrow=classic;html=1;rounded=0;fillColor=#f8cecc;strokeColor=#b85450;" edge="1" parent="1">
          <mxGeometry width="50" height="50" relative="1" as="geometry">
            <mxPoint x="680" y="510" as="sourcePoint" />
            <mxPoint x="510" y="560" as="targetPoint" />
          </mxGeometry>
        </mxCell>
        <mxCell id="6vHBSdDe6rCAB5LISDZy-47" value="" style="shape=flexArrow;endArrow=classic;html=1;rounded=0;fillColor=#f8cecc;strokeColor=#b85450;" edge="1" parent="1">
          <mxGeometry width="50" height="50" relative="1" as="geometry">
            <mxPoint x="510" y="590" as="sourcePoint" />
            <mxPoint x="670" y="640" as="targetPoint" />
          </mxGeometry>
        </mxCell>
        <mxCell id="6vHBSdDe6rCAB5LISDZy-48" value="D1.G.Std" style="rounded=0;whiteSpace=wrap;html=1;fillColor=#A680B8;" vertex="1" parent="1">
          <mxGeometry x="200" y="650" width="80" height="60" as="geometry" />
        </mxCell>
        <mxCell id="6vHBSdDe6rCAB5LISDZy-49" value="D2.G.Std" style="rounded=0;whiteSpace=wrap;html=1;fillColor=#A9C4EB;" vertex="1" parent="1">
          <mxGeometry x="440" y="650" width="80" height="60" as="geometry" />
        </mxCell>
        <mxCell id="6vHBSdDe6rCAB5LISDZy-50" value="DB.G.Std" style="rounded=0;whiteSpace=wrap;html=1;fillColor=#f8cecc;strokeColor=#b85450;" vertex="1" parent="1">
          <mxGeometry x="680" y="650" width="80" height="60" as="geometry" />
        </mxCell>
        <mxCell id="6vHBSdDe6rCAB5LISDZy-51" value="Group Advantage" style="shape=process;whiteSpace=wrap;html=1;backgroundOutline=1;" vertex="1" parent="1">
          <mxGeometry x="380" y="760" width="120" height="60" as="geometry" />
        </mxCell>
        <mxCell id="6vHBSdDe6rCAB5LISDZy-52" value="" style="shape=flexArrow;endArrow=classic;html=1;rounded=0;fillColor=#e1d5e7;strokeColor=#9673a6;" edge="1" parent="1">
          <mxGeometry width="50" height="50" relative="1" as="geometry">
            <mxPoint x="200" y="720" as="sourcePoint" />
            <mxPoint x="370" y="770" as="targetPoint" />
          </mxGeometry>
        </mxCell>
        <mxCell id="6vHBSdDe6rCAB5LISDZy-53" value="D1.G.Advantage" style="rounded=0;whiteSpace=wrap;html=1;fillColor=#A680B8;" vertex="1" parent="1">
          <mxGeometry x="150" y="860" width="100" height="60" as="geometry" />
        </mxCell>
        <mxCell id="6vHBSdDe6rCAB5LISDZy-54" value="" style="shape=flexArrow;endArrow=classic;html=1;rounded=0;fillColor=#e1d5e7;strokeColor=#9673a6;" edge="1" parent="1">
          <mxGeometry width="50" height="50" relative="1" as="geometry">
            <mxPoint x="370" y="800" as="sourcePoint" />
            <mxPoint x="210" y="840" as="targetPoint" />
          </mxGeometry>
        </mxCell>
        <mxCell id="6vHBSdDe6rCAB5LISDZy-55" value="D1.G.Advantage" style="rounded=0;whiteSpace=wrap;html=1;fillColor=#dae8fc;strokeColor=#6c8ebf;" vertex="1" parent="1">
          <mxGeometry x="390" y="860" width="100" height="60" as="geometry" />
        </mxCell>
        <mxCell id="6vHBSdDe6rCAB5LISDZy-56" value="" style="shape=flexArrow;endArrow=classic;html=1;rounded=0;fillColor=#dae8fc;strokeColor=#6c8ebf;" edge="1" parent="1">
          <mxGeometry width="50" height="50" relative="1" as="geometry">
            <mxPoint x="440" y="720" as="sourcePoint" />
            <mxPoint x="440" y="750" as="targetPoint" />
          </mxGeometry>
        </mxCell>
        <mxCell id="6vHBSdDe6rCAB5LISDZy-57" value="" style="shape=flexArrow;endArrow=classic;html=1;rounded=0;fillColor=#dae8fc;strokeColor=#6c8ebf;" edge="1" parent="1">
          <mxGeometry width="50" height="50" relative="1" as="geometry">
            <mxPoint x="439.2" y="827" as="sourcePoint" />
            <mxPoint x="439.2" y="857" as="targetPoint" />
          </mxGeometry>
        </mxCell>
        <mxCell id="6vHBSdDe6rCAB5LISDZy-58" value="D1.G.Advantage" style="rounded=0;whiteSpace=wrap;html=1;fillColor=#f8cecc;strokeColor=#b85450;" vertex="1" parent="1">
          <mxGeometry x="630" y="860" width="100" height="60" as="geometry" />
        </mxCell>
        <mxCell id="6vHBSdDe6rCAB5LISDZy-59" value="" style="shape=flexArrow;endArrow=classic;html=1;rounded=0;fillColor=#f8cecc;strokeColor=#b85450;" edge="1" parent="1">
          <mxGeometry width="50" height="50" relative="1" as="geometry">
            <mxPoint x="680" y="730" as="sourcePoint" />
            <mxPoint x="510" y="780" as="targetPoint" />
          </mxGeometry>
        </mxCell>
        <mxCell id="6vHBSdDe6rCAB5LISDZy-60" value="" style="shape=flexArrow;endArrow=classic;html=1;rounded=0;fillColor=#f8cecc;strokeColor=#b85450;" edge="1" parent="1">
          <mxGeometry width="50" height="50" relative="1" as="geometry">
            <mxPoint x="520" y="800" as="sourcePoint" />
            <mxPoint x="680" y="850" as="targetPoint" />
          </mxGeometry>
        </mxCell>
        <mxCell id="t-04rIU3pZgXzJXe9Z67-1" value="" style="strokeWidth=2;html=1;shape=mxgraph.flowchart.annotation_2;align=left;labelPosition=right;pointerEvents=1;" vertex="1" parent="1">
          <mxGeometry x="10" y="280" width="50" height="200" as="geometry" />
        </mxCell>
        <mxCell id="t-04rIU3pZgXzJXe9Z67-2" value="&lt;font style=&quot;font-size: 18px;&quot;&gt;&lt;b&gt;Episod K Steps&lt;/b&gt;&lt;/font&gt;" style="text;html=1;align=center;verticalAlign=middle;whiteSpace=wrap;rounded=0;" vertex="1" parent="1">
          <mxGeometry x="-100" y="365" width="100" height="30" as="geometry" />
        </mxCell>
      </root>
    </mxGraphModel>
  </diagram>
  <diagram id="o--5bLEHMCQGE3YDSmZn" name="Page-2">
    <mxGraphModel dx="3408" dy="1696" grid="1" gridSize="10" guides="1" tooltips="1" connect="1" arrows="1" fold="1" page="1" pageScale="1" pageWidth="850" pageHeight="1100" math="0" shadow="0">
      <root>
        <mxCell id="0" />
        <mxCell id="1" parent="0" />
        <mxCell id="Lpg7j5DV8L_S_n1q0605-215" value="D1.G1.Sk" style="rounded=0;whiteSpace=wrap;html=1;fillColor=#A680B8;" vertex="1" parent="1">
          <mxGeometry x="832" y="441" width="80" height="60" as="geometry" />
        </mxCell>
        <mxCell id="Lpg7j5DV8L_S_n1q0605-216" value="D1.G2.Sk" style="rounded=0;whiteSpace=wrap;html=1;fillColor=#A680B8;" vertex="1" parent="1">
          <mxGeometry x="912" y="441" width="80" height="60" as="geometry" />
        </mxCell>
        <mxCell id="Lpg7j5DV8L_S_n1q0605-217" value="D1.G3.Sk" style="rounded=0;whiteSpace=wrap;html=1;fillColor=#A680B8;" vertex="1" parent="1">
          <mxGeometry x="992" y="441" width="80" height="60" as="geometry" />
        </mxCell>
        <mxCell id="Lpg7j5DV8L_S_n1q0605-218" value="D2.G1.Sk" style="rounded=0;whiteSpace=wrap;html=1;fillColor=#A9C4EB;" vertex="1" parent="1">
          <mxGeometry x="1072" y="441" width="80" height="60" as="geometry" />
        </mxCell>
        <mxCell id="Lpg7j5DV8L_S_n1q0605-219" value="D2.G2.Sk" style="rounded=0;whiteSpace=wrap;html=1;fillColor=#A9C4EB;" vertex="1" parent="1">
          <mxGeometry x="1152" y="441" width="80" height="60" as="geometry" />
        </mxCell>
        <mxCell id="Lpg7j5DV8L_S_n1q0605-220" value="D2.G3.Sk" style="rounded=0;whiteSpace=wrap;html=1;fillColor=#A9C4EB;" vertex="1" parent="1">
          <mxGeometry x="1232" y="441" width="80" height="60" as="geometry" />
        </mxCell>
        <mxCell id="Lpg7j5DV8L_S_n1q0605-221" value="DB.G1.Sk" style="rounded=0;whiteSpace=wrap;html=1;fillColor=#f8cecc;strokeColor=#b85450;" vertex="1" parent="1">
          <mxGeometry x="1312" y="441" width="80" height="60" as="geometry" />
        </mxCell>
        <mxCell id="Lpg7j5DV8L_S_n1q0605-222" value="DB.G2.Sk" style="rounded=0;whiteSpace=wrap;html=1;fillColor=#f8cecc;strokeColor=#b85450;" vertex="1" parent="1">
          <mxGeometry x="1392" y="441" width="80" height="60" as="geometry" />
        </mxCell>
        <mxCell id="Lpg7j5DV8L_S_n1q0605-223" value="DB.G3.Sk" style="rounded=0;whiteSpace=wrap;html=1;fillColor=#f8cecc;strokeColor=#b85450;" vertex="1" parent="1">
          <mxGeometry x="1472" y="441" width="80" height="60" as="geometry" />
        </mxCell>
        <mxCell id="Lpg7j5DV8L_S_n1q0605-224" value="D1.G1.Probk" style="rounded=0;whiteSpace=wrap;html=1;fillColor=#A680B8;" vertex="1" parent="1">
          <mxGeometry x="832" y="441" width="80" height="60" as="geometry" />
        </mxCell>
        <mxCell id="Lpg7j5DV8L_S_n1q0605-225" value="D1.G2.Probk" style="rounded=0;whiteSpace=wrap;html=1;fillColor=#A680B8;" vertex="1" parent="1">
          <mxGeometry x="912" y="441" width="80" height="60" as="geometry" />
        </mxCell>
        <mxCell id="Lpg7j5DV8L_S_n1q0605-226" value="D1.G3.Probk" style="rounded=0;whiteSpace=wrap;html=1;fillColor=#A680B8;" vertex="1" parent="1">
          <mxGeometry x="992" y="441" width="80" height="60" as="geometry" />
        </mxCell>
        <mxCell id="Lpg7j5DV8L_S_n1q0605-227" value="D2.G1.Probk" style="rounded=0;whiteSpace=wrap;html=1;fillColor=#A9C4EB;" vertex="1" parent="1">
          <mxGeometry x="1072" y="441" width="80" height="60" as="geometry" />
        </mxCell>
        <mxCell id="Lpg7j5DV8L_S_n1q0605-228" value="D2.G2.Probk" style="rounded=0;whiteSpace=wrap;html=1;fillColor=#A9C4EB;" vertex="1" parent="1">
          <mxGeometry x="1152" y="441" width="80" height="60" as="geometry" />
        </mxCell>
        <mxCell id="Lpg7j5DV8L_S_n1q0605-229" value="D2.G3.Probk" style="rounded=0;whiteSpace=wrap;html=1;fillColor=#A9C4EB;" vertex="1" parent="1">
          <mxGeometry x="1232" y="441" width="80" height="60" as="geometry" />
        </mxCell>
        <mxCell id="Lpg7j5DV8L_S_n1q0605-230" value="DB.G1.Probk" style="rounded=0;whiteSpace=wrap;html=1;fillColor=#f8cecc;strokeColor=#b85450;" vertex="1" parent="1">
          <mxGeometry x="1312" y="441" width="80" height="60" as="geometry" />
        </mxCell>
        <mxCell id="Lpg7j5DV8L_S_n1q0605-231" value="DB.G2.Probk" style="rounded=0;whiteSpace=wrap;html=1;fillColor=#f8cecc;strokeColor=#b85450;" vertex="1" parent="1">
          <mxGeometry x="1392" y="441" width="80" height="60" as="geometry" />
        </mxCell>
        <mxCell id="Lpg7j5DV8L_S_n1q0605-232" value="DB.G3.Probk" style="rounded=0;whiteSpace=wrap;html=1;fillColor=#f8cecc;strokeColor=#b85450;" vertex="1" parent="1">
          <mxGeometry x="1472" y="441" width="80" height="60" as="geometry" />
        </mxCell>
        <mxCell id="Lpg7j5DV8L_S_n1q0605-198" value="D1.G2.Sk" style="rounded=0;whiteSpace=wrap;html=1;fillColor=#A680B8;" vertex="1" parent="1">
          <mxGeometry x="920" y="455" width="80" height="60" as="geometry" />
        </mxCell>
        <mxCell id="Lpg7j5DV8L_S_n1q0605-199" value="D1.G3.Sk" style="rounded=0;whiteSpace=wrap;html=1;fillColor=#A680B8;" vertex="1" parent="1">
          <mxGeometry x="1000" y="455" width="80" height="60" as="geometry" />
        </mxCell>
        <mxCell id="Lpg7j5DV8L_S_n1q0605-200" value="D2.G1.Sk" style="rounded=0;whiteSpace=wrap;html=1;fillColor=#A9C4EB;" vertex="1" parent="1">
          <mxGeometry x="1080" y="455" width="80" height="60" as="geometry" />
        </mxCell>
        <mxCell id="Lpg7j5DV8L_S_n1q0605-201" value="D2.G2.Sk" style="rounded=0;whiteSpace=wrap;html=1;fillColor=#A9C4EB;" vertex="1" parent="1">
          <mxGeometry x="1160" y="455" width="80" height="60" as="geometry" />
        </mxCell>
        <mxCell id="Lpg7j5DV8L_S_n1q0605-202" value="D2.G3.Sk" style="rounded=0;whiteSpace=wrap;html=1;fillColor=#A9C4EB;" vertex="1" parent="1">
          <mxGeometry x="1240" y="455" width="80" height="60" as="geometry" />
        </mxCell>
        <mxCell id="Lpg7j5DV8L_S_n1q0605-203" value="DB.G1.Sk" style="rounded=0;whiteSpace=wrap;html=1;fillColor=#f8cecc;strokeColor=#b85450;" vertex="1" parent="1">
          <mxGeometry x="1320" y="455" width="80" height="60" as="geometry" />
        </mxCell>
        <mxCell id="Lpg7j5DV8L_S_n1q0605-204" value="DB.G2.Sk" style="rounded=0;whiteSpace=wrap;html=1;fillColor=#f8cecc;strokeColor=#b85450;" vertex="1" parent="1">
          <mxGeometry x="1400" y="455" width="80" height="60" as="geometry" />
        </mxCell>
        <mxCell id="Lpg7j5DV8L_S_n1q0605-205" value="DB.G3.Sk" style="rounded=0;whiteSpace=wrap;html=1;fillColor=#f8cecc;strokeColor=#b85450;" vertex="1" parent="1">
          <mxGeometry x="1480" y="455" width="80" height="60" as="geometry" />
        </mxCell>
        <mxCell id="Lpg7j5DV8L_S_n1q0605-206" value="D1.G1.Probk" style="rounded=0;whiteSpace=wrap;html=1;fillColor=#A680B8;" vertex="1" parent="1">
          <mxGeometry x="840" y="452" width="80" height="60" as="geometry" />
        </mxCell>
        <mxCell id="Lpg7j5DV8L_S_n1q0605-207" value="D1.G2.Probk" style="rounded=0;whiteSpace=wrap;html=1;fillColor=#A680B8;" vertex="1" parent="1">
          <mxGeometry x="920" y="452" width="80" height="60" as="geometry" />
        </mxCell>
        <mxCell id="Lpg7j5DV8L_S_n1q0605-208" value="D1.G3.Probk" style="rounded=0;whiteSpace=wrap;html=1;fillColor=#A680B8;" vertex="1" parent="1">
          <mxGeometry x="1000" y="452" width="80" height="60" as="geometry" />
        </mxCell>
        <mxCell id="Lpg7j5DV8L_S_n1q0605-209" value="D2.G1.Probk" style="rounded=0;whiteSpace=wrap;html=1;fillColor=#A9C4EB;" vertex="1" parent="1">
          <mxGeometry x="1080" y="452" width="80" height="60" as="geometry" />
        </mxCell>
        <mxCell id="Lpg7j5DV8L_S_n1q0605-210" value="D2.G2.Probk" style="rounded=0;whiteSpace=wrap;html=1;fillColor=#A9C4EB;" vertex="1" parent="1">
          <mxGeometry x="1160" y="452" width="80" height="60" as="geometry" />
        </mxCell>
        <mxCell id="Lpg7j5DV8L_S_n1q0605-211" value="D2.G3.Probk" style="rounded=0;whiteSpace=wrap;html=1;fillColor=#A9C4EB;" vertex="1" parent="1">
          <mxGeometry x="1240" y="452" width="80" height="60" as="geometry" />
        </mxCell>
        <mxCell id="Lpg7j5DV8L_S_n1q0605-212" value="DB.G1.Probk" style="rounded=0;whiteSpace=wrap;html=1;fillColor=#f8cecc;strokeColor=#b85450;" vertex="1" parent="1">
          <mxGeometry x="1320" y="452" width="80" height="60" as="geometry" />
        </mxCell>
        <mxCell id="Lpg7j5DV8L_S_n1q0605-213" value="DB.G2.Probk" style="rounded=0;whiteSpace=wrap;html=1;fillColor=#f8cecc;strokeColor=#b85450;" vertex="1" parent="1">
          <mxGeometry x="1400" y="452" width="80" height="60" as="geometry" />
        </mxCell>
        <mxCell id="Lpg7j5DV8L_S_n1q0605-214" value="DB.G3.Probk" style="rounded=0;whiteSpace=wrap;html=1;fillColor=#f8cecc;strokeColor=#b85450;" vertex="1" parent="1">
          <mxGeometry x="1480" y="452" width="80" height="60" as="geometry" />
        </mxCell>
        <mxCell id="D0jyXDT64Lws_MZwm4Ce-1" value="D1" style="rounded=0;whiteSpace=wrap;html=1;fillColor=#A680B8;" vertex="1" parent="1">
          <mxGeometry x="160" y="140" width="80" height="60" as="geometry" />
        </mxCell>
        <mxCell id="D0jyXDT64Lws_MZwm4Ce-2" value="D1.G1.S0" style="rounded=0;whiteSpace=wrap;html=1;fillColor=#A680B8;" vertex="1" parent="1">
          <mxGeometry x="80" y="240" width="80" height="60" as="geometry" />
        </mxCell>
        <mxCell id="D0jyXDT64Lws_MZwm4Ce-3" value="D1.G2.S0" style="rounded=0;whiteSpace=wrap;html=1;fillColor=#A680B8;" vertex="1" parent="1">
          <mxGeometry x="160" y="240" width="80" height="60" as="geometry" />
        </mxCell>
        <mxCell id="D0jyXDT64Lws_MZwm4Ce-4" value="D1.G3.S0" style="rounded=0;whiteSpace=wrap;html=1;fillColor=#A680B8;" vertex="1" parent="1">
          <mxGeometry x="240" y="240" width="80" height="60" as="geometry" />
        </mxCell>
        <mxCell id="D0jyXDT64Lws_MZwm4Ce-5" value="D2" style="rounded=0;whiteSpace=wrap;html=1;fillColor=#A9C4EB;" vertex="1" parent="1">
          <mxGeometry x="400" y="140" width="80" height="60" as="geometry" />
        </mxCell>
        <mxCell id="D0jyXDT64Lws_MZwm4Ce-6" value="D2.G1.S0" style="rounded=0;whiteSpace=wrap;html=1;fillColor=#A9C4EB;" vertex="1" parent="1">
          <mxGeometry x="320" y="240" width="80" height="60" as="geometry" />
        </mxCell>
        <mxCell id="D0jyXDT64Lws_MZwm4Ce-7" value="D2.G2.S0" style="rounded=0;whiteSpace=wrap;html=1;fillColor=#A9C4EB;" vertex="1" parent="1">
          <mxGeometry x="400" y="240" width="80" height="60" as="geometry" />
        </mxCell>
        <mxCell id="D0jyXDT64Lws_MZwm4Ce-8" value="D2.G3.S0" style="rounded=0;whiteSpace=wrap;html=1;fillColor=#A9C4EB;" vertex="1" parent="1">
          <mxGeometry x="480" y="240" width="80" height="60" as="geometry" />
        </mxCell>
        <mxCell id="D0jyXDT64Lws_MZwm4Ce-9" value="" style="shape=flexArrow;endArrow=classic;html=1;rounded=0;entryX=0.5;entryY=0;entryDx=0;entryDy=0;fillColor=#e1d5e7;strokeColor=#9673a6;" edge="1" parent="1" target="D0jyXDT64Lws_MZwm4Ce-3">
          <mxGeometry width="50" height="50" relative="1" as="geometry">
            <mxPoint x="200" y="210" as="sourcePoint" />
            <mxPoint x="250" y="160" as="targetPoint" />
          </mxGeometry>
        </mxCell>
        <mxCell id="D0jyXDT64Lws_MZwm4Ce-10" value="" style="shape=flexArrow;endArrow=classic;html=1;rounded=0;entryX=0.5;entryY=0;entryDx=0;entryDy=0;fillColor=#dae8fc;strokeColor=#6c8ebf;" edge="1" parent="1" target="D0jyXDT64Lws_MZwm4Ce-7">
          <mxGeometry width="50" height="50" relative="1" as="geometry">
            <mxPoint x="440" y="210" as="sourcePoint" />
            <mxPoint x="210" y="250" as="targetPoint" />
          </mxGeometry>
        </mxCell>
        <mxCell id="D0jyXDT64Lws_MZwm4Ce-11" value="DB" style="rounded=0;whiteSpace=wrap;html=1;fillColor=#f8cecc;strokeColor=#b85450;" vertex="1" parent="1">
          <mxGeometry x="640" y="140" width="80" height="60" as="geometry" />
        </mxCell>
        <mxCell id="D0jyXDT64Lws_MZwm4Ce-12" value="DB.G1.S0" style="rounded=0;whiteSpace=wrap;html=1;fillColor=#f8cecc;strokeColor=#b85450;" vertex="1" parent="1">
          <mxGeometry x="560" y="240" width="80" height="60" as="geometry" />
        </mxCell>
        <mxCell id="D0jyXDT64Lws_MZwm4Ce-13" value="DB.G2.S0" style="rounded=0;whiteSpace=wrap;html=1;fillColor=#f8cecc;strokeColor=#b85450;" vertex="1" parent="1">
          <mxGeometry x="640" y="240" width="80" height="60" as="geometry" />
        </mxCell>
        <mxCell id="D0jyXDT64Lws_MZwm4Ce-14" value="DB.G3.S0" style="rounded=0;whiteSpace=wrap;html=1;fillColor=#f8cecc;strokeColor=#b85450;" vertex="1" parent="1">
          <mxGeometry x="720" y="240" width="80" height="60" as="geometry" />
        </mxCell>
        <mxCell id="D0jyXDT64Lws_MZwm4Ce-15" value="" style="shape=flexArrow;endArrow=classic;html=1;rounded=0;entryX=0.5;entryY=0;entryDx=0;entryDy=0;fillColor=#f8cecc;strokeColor=#b85450;" edge="1" parent="1" target="D0jyXDT64Lws_MZwm4Ce-13">
          <mxGeometry width="50" height="50" relative="1" as="geometry">
            <mxPoint x="680" y="210" as="sourcePoint" />
            <mxPoint x="450" y="250" as="targetPoint" />
          </mxGeometry>
        </mxCell>
        <mxCell id="D0jyXDT64Lws_MZwm4Ce-16" value="D1.G1.Sk" style="rounded=0;whiteSpace=wrap;html=1;fillColor=#A680B8;" vertex="1" parent="1">
          <mxGeometry x="80" y="440" width="80" height="60" as="geometry" />
        </mxCell>
        <mxCell id="D0jyXDT64Lws_MZwm4Ce-17" value="D1.G2.Sk" style="rounded=0;whiteSpace=wrap;html=1;fillColor=#A680B8;" vertex="1" parent="1">
          <mxGeometry x="160" y="440" width="80" height="60" as="geometry" />
        </mxCell>
        <mxCell id="D0jyXDT64Lws_MZwm4Ce-18" value="D1.G3.Sk" style="rounded=0;whiteSpace=wrap;html=1;fillColor=#A680B8;" vertex="1" parent="1">
          <mxGeometry x="240" y="440" width="80" height="60" as="geometry" />
        </mxCell>
        <mxCell id="D0jyXDT64Lws_MZwm4Ce-19" value="D2.G1.Sk" style="rounded=0;whiteSpace=wrap;html=1;fillColor=#A9C4EB;" vertex="1" parent="1">
          <mxGeometry x="320" y="440" width="80" height="60" as="geometry" />
        </mxCell>
        <mxCell id="D0jyXDT64Lws_MZwm4Ce-20" value="" style="edgeStyle=orthogonalEdgeStyle;rounded=0;orthogonalLoop=1;jettySize=auto;html=1;" edge="1" parent="1" source="D0jyXDT64Lws_MZwm4Ce-21" target="D0jyXDT64Lws_MZwm4Ce-26">
          <mxGeometry relative="1" as="geometry" />
        </mxCell>
        <mxCell id="D0jyXDT64Lws_MZwm4Ce-21" value="D2.G2.Sk" style="rounded=0;whiteSpace=wrap;html=1;fillColor=#A9C4EB;" vertex="1" parent="1">
          <mxGeometry x="400" y="440" width="80" height="60" as="geometry" />
        </mxCell>
        <mxCell id="D0jyXDT64Lws_MZwm4Ce-22" value="D2.G3.Sk" style="rounded=0;whiteSpace=wrap;html=1;fillColor=#A9C4EB;" vertex="1" parent="1">
          <mxGeometry x="480" y="440" width="80" height="60" as="geometry" />
        </mxCell>
        <mxCell id="D0jyXDT64Lws_MZwm4Ce-23" value="DB.G1.Sk" style="rounded=0;whiteSpace=wrap;html=1;fillColor=#f8cecc;strokeColor=#b85450;" vertex="1" parent="1">
          <mxGeometry x="560" y="440" width="80" height="60" as="geometry" />
        </mxCell>
        <mxCell id="D0jyXDT64Lws_MZwm4Ce-24" value="DB.G2.Sk" style="rounded=0;whiteSpace=wrap;html=1;fillColor=#f8cecc;strokeColor=#b85450;" vertex="1" parent="1">
          <mxGeometry x="640" y="440" width="80" height="60" as="geometry" />
        </mxCell>
        <mxCell id="D0jyXDT64Lws_MZwm4Ce-25" value="DB.G3.Sk" style="rounded=0;whiteSpace=wrap;html=1;fillColor=#f8cecc;strokeColor=#b85450;" vertex="1" parent="1">
          <mxGeometry x="720" y="440" width="80" height="60" as="geometry" />
        </mxCell>
        <mxCell id="D0jyXDT64Lws_MZwm4Ce-26" value="&lt;b&gt;Policy&lt;/b&gt;" style="shape=process;whiteSpace=wrap;html=1;backgroundOutline=1;" vertex="1" parent="1">
          <mxGeometry x="380" y="340" width="120" height="60" as="geometry" />
        </mxCell>
        <mxCell id="D0jyXDT64Lws_MZwm4Ce-27" value="" style="shape=flexArrow;endArrow=classic;html=1;rounded=0;entryX=0.5;entryY=0;entryDx=0;entryDy=0;fillColor=#dae8fc;strokeColor=#6c8ebf;" edge="1" parent="1" target="D0jyXDT64Lws_MZwm4Ce-26">
          <mxGeometry width="50" height="50" relative="1" as="geometry">
            <mxPoint x="440" y="310" as="sourcePoint" />
            <mxPoint x="450" y="250" as="targetPoint" />
          </mxGeometry>
        </mxCell>
        <mxCell id="D0jyXDT64Lws_MZwm4Ce-28" value="" style="shape=flexArrow;endArrow=classic;html=1;rounded=0;fillColor=#e1d5e7;strokeColor=#9673a6;" edge="1" parent="1">
          <mxGeometry width="50" height="50" relative="1" as="geometry">
            <mxPoint x="200" y="310" as="sourcePoint" />
            <mxPoint x="370" y="360" as="targetPoint" />
          </mxGeometry>
        </mxCell>
        <mxCell id="D0jyXDT64Lws_MZwm4Ce-29" value="" style="shape=flexArrow;endArrow=classic;html=1;rounded=0;fillColor=#f8cecc;strokeColor=#b85450;" edge="1" parent="1">
          <mxGeometry width="50" height="50" relative="1" as="geometry">
            <mxPoint x="680" y="310" as="sourcePoint" />
            <mxPoint x="510" y="360" as="targetPoint" />
          </mxGeometry>
        </mxCell>
        <mxCell id="D0jyXDT64Lws_MZwm4Ce-30" value="" style="shape=flexArrow;endArrow=classic;html=1;rounded=0;fillColor=#e1d5e7;strokeColor=#9673a6;" edge="1" parent="1">
          <mxGeometry width="50" height="50" relative="1" as="geometry">
            <mxPoint x="370" y="390" as="sourcePoint" />
            <mxPoint x="210" y="430" as="targetPoint" />
          </mxGeometry>
        </mxCell>
        <mxCell id="D0jyXDT64Lws_MZwm4Ce-31" value="" style="shape=flexArrow;endArrow=classic;html=1;rounded=0;fillColor=#dae8fc;strokeColor=#6c8ebf;" edge="1" parent="1">
          <mxGeometry width="50" height="50" relative="1" as="geometry">
            <mxPoint x="440" y="405" as="sourcePoint" />
            <mxPoint x="440" y="435" as="targetPoint" />
          </mxGeometry>
        </mxCell>
        <mxCell id="D0jyXDT64Lws_MZwm4Ce-32" value="" style="shape=flexArrow;endArrow=classic;html=1;rounded=0;fillColor=#f8cecc;strokeColor=#b85450;" edge="1" parent="1">
          <mxGeometry width="50" height="50" relative="1" as="geometry">
            <mxPoint x="510" y="380" as="sourcePoint" />
            <mxPoint x="670" y="430" as="targetPoint" />
          </mxGeometry>
        </mxCell>
        <mxCell id="Lpg7j5DV8L_S_n1q0605-1" value="D1" style="rounded=0;whiteSpace=wrap;html=1;fillColor=#A680B8;" vertex="1" parent="1">
          <mxGeometry x="160" y="140" width="80" height="60" as="geometry" />
        </mxCell>
        <mxCell id="Lpg7j5DV8L_S_n1q0605-2" value="D1.G1.S0" style="rounded=0;whiteSpace=wrap;html=1;fillColor=#A680B8;" vertex="1" parent="1">
          <mxGeometry x="80" y="240" width="80" height="60" as="geometry" />
        </mxCell>
        <mxCell id="Lpg7j5DV8L_S_n1q0605-3" value="D1.G2.S0" style="rounded=0;whiteSpace=wrap;html=1;fillColor=#A680B8;" vertex="1" parent="1">
          <mxGeometry x="160" y="240" width="80" height="60" as="geometry" />
        </mxCell>
        <mxCell id="Lpg7j5DV8L_S_n1q0605-4" value="D1.G3.S0" style="rounded=0;whiteSpace=wrap;html=1;fillColor=#A680B8;" vertex="1" parent="1">
          <mxGeometry x="240" y="240" width="80" height="60" as="geometry" />
        </mxCell>
        <mxCell id="Lpg7j5DV8L_S_n1q0605-5" value="D2" style="rounded=0;whiteSpace=wrap;html=1;fillColor=#A9C4EB;" vertex="1" parent="1">
          <mxGeometry x="400" y="140" width="80" height="60" as="geometry" />
        </mxCell>
        <mxCell id="Lpg7j5DV8L_S_n1q0605-6" value="D2.G1.S0" style="rounded=0;whiteSpace=wrap;html=1;fillColor=#A9C4EB;" vertex="1" parent="1">
          <mxGeometry x="320" y="240" width="80" height="60" as="geometry" />
        </mxCell>
        <mxCell id="Lpg7j5DV8L_S_n1q0605-7" value="D2.G2.S0" style="rounded=0;whiteSpace=wrap;html=1;fillColor=#A9C4EB;" vertex="1" parent="1">
          <mxGeometry x="400" y="240" width="80" height="60" as="geometry" />
        </mxCell>
        <mxCell id="Lpg7j5DV8L_S_n1q0605-8" value="D2.G3.S0" style="rounded=0;whiteSpace=wrap;html=1;fillColor=#A9C4EB;" vertex="1" parent="1">
          <mxGeometry x="480" y="240" width="80" height="60" as="geometry" />
        </mxCell>
        <mxCell id="Lpg7j5DV8L_S_n1q0605-9" value="" style="shape=flexArrow;endArrow=classic;html=1;rounded=0;entryX=0.5;entryY=0;entryDx=0;entryDy=0;fillColor=#e1d5e7;strokeColor=#9673a6;" edge="1" parent="1" target="Lpg7j5DV8L_S_n1q0605-3">
          <mxGeometry width="50" height="50" relative="1" as="geometry">
            <mxPoint x="200" y="210" as="sourcePoint" />
            <mxPoint x="250" y="160" as="targetPoint" />
          </mxGeometry>
        </mxCell>
        <mxCell id="Lpg7j5DV8L_S_n1q0605-10" value="" style="shape=flexArrow;endArrow=classic;html=1;rounded=0;entryX=0.5;entryY=0;entryDx=0;entryDy=0;fillColor=#dae8fc;strokeColor=#6c8ebf;" edge="1" parent="1" target="Lpg7j5DV8L_S_n1q0605-7">
          <mxGeometry width="50" height="50" relative="1" as="geometry">
            <mxPoint x="440" y="210" as="sourcePoint" />
            <mxPoint x="210" y="250" as="targetPoint" />
          </mxGeometry>
        </mxCell>
        <mxCell id="Lpg7j5DV8L_S_n1q0605-11" value="DB" style="rounded=0;whiteSpace=wrap;html=1;fillColor=#f8cecc;strokeColor=#b85450;" vertex="1" parent="1">
          <mxGeometry x="640" y="140" width="80" height="60" as="geometry" />
        </mxCell>
        <mxCell id="Lpg7j5DV8L_S_n1q0605-12" value="DB.G1.S0" style="rounded=0;whiteSpace=wrap;html=1;fillColor=#f8cecc;strokeColor=#b85450;" vertex="1" parent="1">
          <mxGeometry x="560" y="240" width="80" height="60" as="geometry" />
        </mxCell>
        <mxCell id="Lpg7j5DV8L_S_n1q0605-13" value="DB.G2.S0" style="rounded=0;whiteSpace=wrap;html=1;fillColor=#f8cecc;strokeColor=#b85450;" vertex="1" parent="1">
          <mxGeometry x="640" y="240" width="80" height="60" as="geometry" />
        </mxCell>
        <mxCell id="Lpg7j5DV8L_S_n1q0605-14" value="DB.G3.S0" style="rounded=0;whiteSpace=wrap;html=1;fillColor=#f8cecc;strokeColor=#b85450;" vertex="1" parent="1">
          <mxGeometry x="720" y="240" width="80" height="60" as="geometry" />
        </mxCell>
        <mxCell id="Lpg7j5DV8L_S_n1q0605-15" value="" style="shape=flexArrow;endArrow=classic;html=1;rounded=0;entryX=0.5;entryY=0;entryDx=0;entryDy=0;fillColor=#f8cecc;strokeColor=#b85450;" edge="1" parent="1" target="Lpg7j5DV8L_S_n1q0605-13">
          <mxGeometry width="50" height="50" relative="1" as="geometry">
            <mxPoint x="680" y="210" as="sourcePoint" />
            <mxPoint x="450" y="250" as="targetPoint" />
          </mxGeometry>
        </mxCell>
        <mxCell id="Lpg7j5DV8L_S_n1q0605-16" value="D1.G1.Sk" style="rounded=0;whiteSpace=wrap;html=1;fillColor=#A680B8;" vertex="1" parent="1">
          <mxGeometry x="80" y="440" width="80" height="60" as="geometry" />
        </mxCell>
        <mxCell id="Lpg7j5DV8L_S_n1q0605-17" value="D1.G2.Sk" style="rounded=0;whiteSpace=wrap;html=1;fillColor=#A680B8;" vertex="1" parent="1">
          <mxGeometry x="160" y="440" width="80" height="60" as="geometry" />
        </mxCell>
        <mxCell id="Lpg7j5DV8L_S_n1q0605-18" value="D1.G3.Sk" style="rounded=0;whiteSpace=wrap;html=1;fillColor=#A680B8;" vertex="1" parent="1">
          <mxGeometry x="240" y="440" width="80" height="60" as="geometry" />
        </mxCell>
        <mxCell id="Lpg7j5DV8L_S_n1q0605-19" value="D2.G1.Sk" style="rounded=0;whiteSpace=wrap;html=1;fillColor=#A9C4EB;" vertex="1" parent="1">
          <mxGeometry x="320" y="440" width="80" height="60" as="geometry" />
        </mxCell>
        <mxCell id="Lpg7j5DV8L_S_n1q0605-20" value="" style="edgeStyle=orthogonalEdgeStyle;rounded=0;orthogonalLoop=1;jettySize=auto;html=1;" edge="1" parent="1" source="Lpg7j5DV8L_S_n1q0605-21" target="Lpg7j5DV8L_S_n1q0605-26">
          <mxGeometry relative="1" as="geometry" />
        </mxCell>
        <mxCell id="Lpg7j5DV8L_S_n1q0605-21" value="D2.G2.Sk" style="rounded=0;whiteSpace=wrap;html=1;fillColor=#A9C4EB;" vertex="1" parent="1">
          <mxGeometry x="400" y="440" width="80" height="60" as="geometry" />
        </mxCell>
        <mxCell id="Lpg7j5DV8L_S_n1q0605-22" value="D2.G3.Sk" style="rounded=0;whiteSpace=wrap;html=1;fillColor=#A9C4EB;" vertex="1" parent="1">
          <mxGeometry x="480" y="440" width="80" height="60" as="geometry" />
        </mxCell>
        <mxCell id="Lpg7j5DV8L_S_n1q0605-23" value="DB.G1.Sk" style="rounded=0;whiteSpace=wrap;html=1;fillColor=#f8cecc;strokeColor=#b85450;" vertex="1" parent="1">
          <mxGeometry x="560" y="440" width="80" height="60" as="geometry" />
        </mxCell>
        <mxCell id="Lpg7j5DV8L_S_n1q0605-24" value="DB.G2.Sk" style="rounded=0;whiteSpace=wrap;html=1;fillColor=#f8cecc;strokeColor=#b85450;" vertex="1" parent="1">
          <mxGeometry x="640" y="440" width="80" height="60" as="geometry" />
        </mxCell>
        <mxCell id="Lpg7j5DV8L_S_n1q0605-25" value="DB.G3.Sk" style="rounded=0;whiteSpace=wrap;html=1;fillColor=#f8cecc;strokeColor=#b85450;" vertex="1" parent="1">
          <mxGeometry x="720" y="440" width="80" height="60" as="geometry" />
        </mxCell>
        <mxCell id="Lpg7j5DV8L_S_n1q0605-244" style="edgeStyle=orthogonalEdgeStyle;rounded=0;orthogonalLoop=1;jettySize=auto;html=1;" edge="1" parent="1" source="Lpg7j5DV8L_S_n1q0605-26">
          <mxGeometry relative="1" as="geometry">
            <mxPoint x="1200" y="410" as="targetPoint" />
          </mxGeometry>
        </mxCell>
        <mxCell id="Lpg7j5DV8L_S_n1q0605-26" value="&lt;b&gt;Policy&lt;/b&gt;" style="shape=process;whiteSpace=wrap;html=1;backgroundOutline=1;" vertex="1" parent="1">
          <mxGeometry x="380" y="340" width="120" height="60" as="geometry" />
        </mxCell>
        <mxCell id="Lpg7j5DV8L_S_n1q0605-27" value="" style="shape=flexArrow;endArrow=classic;html=1;rounded=0;entryX=0.5;entryY=0;entryDx=0;entryDy=0;fillColor=#dae8fc;strokeColor=#6c8ebf;" edge="1" parent="1" target="Lpg7j5DV8L_S_n1q0605-26">
          <mxGeometry width="50" height="50" relative="1" as="geometry">
            <mxPoint x="440" y="310" as="sourcePoint" />
            <mxPoint x="450" y="250" as="targetPoint" />
          </mxGeometry>
        </mxCell>
        <mxCell id="Lpg7j5DV8L_S_n1q0605-28" value="" style="shape=flexArrow;endArrow=classic;html=1;rounded=0;fillColor=#e1d5e7;strokeColor=#9673a6;" edge="1" parent="1">
          <mxGeometry width="50" height="50" relative="1" as="geometry">
            <mxPoint x="200" y="310" as="sourcePoint" />
            <mxPoint x="370" y="360" as="targetPoint" />
          </mxGeometry>
        </mxCell>
        <mxCell id="Lpg7j5DV8L_S_n1q0605-29" value="" style="shape=flexArrow;endArrow=classic;html=1;rounded=0;fillColor=#f8cecc;strokeColor=#b85450;" edge="1" parent="1">
          <mxGeometry width="50" height="50" relative="1" as="geometry">
            <mxPoint x="680" y="310" as="sourcePoint" />
            <mxPoint x="510" y="360" as="targetPoint" />
          </mxGeometry>
        </mxCell>
        <mxCell id="Lpg7j5DV8L_S_n1q0605-30" value="" style="shape=flexArrow;endArrow=classic;html=1;rounded=0;fillColor=#e1d5e7;strokeColor=#9673a6;" edge="1" parent="1">
          <mxGeometry width="50" height="50" relative="1" as="geometry">
            <mxPoint x="370" y="390" as="sourcePoint" />
            <mxPoint x="210" y="430" as="targetPoint" />
          </mxGeometry>
        </mxCell>
        <mxCell id="Lpg7j5DV8L_S_n1q0605-31" value="" style="shape=flexArrow;endArrow=classic;html=1;rounded=0;fillColor=#dae8fc;strokeColor=#6c8ebf;" edge="1" parent="1">
          <mxGeometry width="50" height="50" relative="1" as="geometry">
            <mxPoint x="440" y="405" as="sourcePoint" />
            <mxPoint x="440" y="435" as="targetPoint" />
          </mxGeometry>
        </mxCell>
        <mxCell id="Lpg7j5DV8L_S_n1q0605-32" value="" style="shape=flexArrow;endArrow=classic;html=1;rounded=0;fillColor=#f8cecc;strokeColor=#b85450;" edge="1" parent="1">
          <mxGeometry width="50" height="50" relative="1" as="geometry">
            <mxPoint x="510" y="380" as="sourcePoint" />
            <mxPoint x="670" y="430" as="targetPoint" />
          </mxGeometry>
        </mxCell>
        <mxCell id="Lpg7j5DV8L_S_n1q0605-33" value="Group Mean &amp;amp; StD" style="shape=process;whiteSpace=wrap;html=1;backgroundOutline=1;" vertex="1" parent="1">
          <mxGeometry x="380" y="767" width="120" height="60" as="geometry" />
        </mxCell>
        <mxCell id="Lpg7j5DV8L_S_n1q0605-34" value="D1.G.Mean" style="rounded=0;whiteSpace=wrap;html=1;fillColor=#A680B8;" vertex="1" parent="1">
          <mxGeometry x="120" y="867" width="80" height="60" as="geometry" />
        </mxCell>
        <mxCell id="Lpg7j5DV8L_S_n1q0605-35" value="" style="shape=flexArrow;endArrow=classic;html=1;rounded=0;fillColor=#e1d5e7;strokeColor=#9673a6;" edge="1" parent="1">
          <mxGeometry width="50" height="50" relative="1" as="geometry">
            <mxPoint x="200" y="727" as="sourcePoint" />
            <mxPoint x="370" y="777" as="targetPoint" />
          </mxGeometry>
        </mxCell>
        <mxCell id="Lpg7j5DV8L_S_n1q0605-36" value="" style="shape=flexArrow;endArrow=classic;html=1;rounded=0;fillColor=#e1d5e7;strokeColor=#9673a6;" edge="1" parent="1">
          <mxGeometry width="50" height="50" relative="1" as="geometry">
            <mxPoint x="370" y="817" as="sourcePoint" />
            <mxPoint x="210" y="857" as="targetPoint" />
          </mxGeometry>
        </mxCell>
        <mxCell id="Lpg7j5DV8L_S_n1q0605-37" value="D2.G.Mean" style="rounded=0;whiteSpace=wrap;html=1;fillColor=#A9C4EB;" vertex="1" parent="1">
          <mxGeometry x="360" y="867" width="80" height="60" as="geometry" />
        </mxCell>
        <mxCell id="Lpg7j5DV8L_S_n1q0605-38" value="" style="shape=flexArrow;endArrow=classic;html=1;rounded=0;fillColor=#dae8fc;strokeColor=#6c8ebf;" edge="1" parent="1">
          <mxGeometry width="50" height="50" relative="1" as="geometry">
            <mxPoint x="441" y="731" as="sourcePoint" />
            <mxPoint x="441" y="761" as="targetPoint" />
          </mxGeometry>
        </mxCell>
        <mxCell id="Lpg7j5DV8L_S_n1q0605-39" value="" style="shape=flexArrow;endArrow=classic;html=1;rounded=0;fillColor=#dae8fc;strokeColor=#6c8ebf;" edge="1" parent="1">
          <mxGeometry width="50" height="50" relative="1" as="geometry">
            <mxPoint x="440" y="832" as="sourcePoint" />
            <mxPoint x="440" y="862" as="targetPoint" />
          </mxGeometry>
        </mxCell>
        <mxCell id="Lpg7j5DV8L_S_n1q0605-40" value="DB.G.Mean" style="rounded=0;whiteSpace=wrap;html=1;fillColor=#f8cecc;strokeColor=#b85450;" vertex="1" parent="1">
          <mxGeometry x="600" y="867" width="80" height="60" as="geometry" />
        </mxCell>
        <mxCell id="Lpg7j5DV8L_S_n1q0605-41" value="" style="shape=flexArrow;endArrow=classic;html=1;rounded=0;fillColor=#f8cecc;strokeColor=#b85450;" edge="1" parent="1">
          <mxGeometry width="50" height="50" relative="1" as="geometry">
            <mxPoint x="680" y="727" as="sourcePoint" />
            <mxPoint x="510" y="777" as="targetPoint" />
          </mxGeometry>
        </mxCell>
        <mxCell id="Lpg7j5DV8L_S_n1q0605-42" value="" style="shape=flexArrow;endArrow=classic;html=1;rounded=0;fillColor=#f8cecc;strokeColor=#b85450;" edge="1" parent="1">
          <mxGeometry width="50" height="50" relative="1" as="geometry">
            <mxPoint x="510" y="807" as="sourcePoint" />
            <mxPoint x="670" y="857" as="targetPoint" />
          </mxGeometry>
        </mxCell>
        <mxCell id="Lpg7j5DV8L_S_n1q0605-43" value="D1.G.Std" style="rounded=0;whiteSpace=wrap;html=1;fillColor=#A680B8;" vertex="1" parent="1">
          <mxGeometry x="200" y="867" width="80" height="60" as="geometry" />
        </mxCell>
        <mxCell id="Lpg7j5DV8L_S_n1q0605-44" value="D2.G.Std" style="rounded=0;whiteSpace=wrap;html=1;fillColor=#A9C4EB;" vertex="1" parent="1">
          <mxGeometry x="440" y="867" width="80" height="60" as="geometry" />
        </mxCell>
        <mxCell id="Lpg7j5DV8L_S_n1q0605-45" value="DB.G.Std" style="rounded=0;whiteSpace=wrap;html=1;fillColor=#f8cecc;strokeColor=#b85450;" vertex="1" parent="1">
          <mxGeometry x="680" y="867" width="80" height="60" as="geometry" />
        </mxCell>
        <mxCell id="Lpg7j5DV8L_S_n1q0605-46" value="Group Advantage" style="shape=process;whiteSpace=wrap;html=1;backgroundOutline=1;" vertex="1" parent="1">
          <mxGeometry x="380" y="977" width="120" height="60" as="geometry" />
        </mxCell>
        <mxCell id="Lpg7j5DV8L_S_n1q0605-47" value="" style="shape=flexArrow;endArrow=classic;html=1;rounded=0;fillColor=#e1d5e7;strokeColor=#9673a6;" edge="1" parent="1">
          <mxGeometry width="50" height="50" relative="1" as="geometry">
            <mxPoint x="200" y="937" as="sourcePoint" />
            <mxPoint x="370" y="987" as="targetPoint" />
          </mxGeometry>
        </mxCell>
        <mxCell id="Lpg7j5DV8L_S_n1q0605-49" value="" style="shape=flexArrow;endArrow=classic;html=1;rounded=0;fillColor=#e1d5e7;strokeColor=#9673a6;" edge="1" parent="1">
          <mxGeometry width="50" height="50" relative="1" as="geometry">
            <mxPoint x="370" y="1017" as="sourcePoint" />
            <mxPoint x="200" y="1070" as="targetPoint" />
          </mxGeometry>
        </mxCell>
        <mxCell id="Lpg7j5DV8L_S_n1q0605-50" value="Total Adv" style="rounded=0;whiteSpace=wrap;html=1;fillColor=#008a00;strokeColor=#005700;fontColor=#ffffff;" vertex="1" parent="1">
          <mxGeometry x="822" y="1550" width="100" height="60" as="geometry" />
        </mxCell>
        <mxCell id="Lpg7j5DV8L_S_n1q0605-51" value="" style="shape=flexArrow;endArrow=classic;html=1;rounded=0;fillColor=#dae8fc;strokeColor=#6c8ebf;" edge="1" parent="1">
          <mxGeometry width="50" height="50" relative="1" as="geometry">
            <mxPoint x="440" y="937" as="sourcePoint" />
            <mxPoint x="440" y="967" as="targetPoint" />
          </mxGeometry>
        </mxCell>
        <mxCell id="Lpg7j5DV8L_S_n1q0605-52" value="" style="shape=flexArrow;endArrow=classic;html=1;rounded=0;fillColor=#dae8fc;strokeColor=#6c8ebf;" edge="1" parent="1">
          <mxGeometry width="50" height="50" relative="1" as="geometry">
            <mxPoint x="439.2" y="1044" as="sourcePoint" />
            <mxPoint x="439.2" y="1074" as="targetPoint" />
          </mxGeometry>
        </mxCell>
        <mxCell id="Lpg7j5DV8L_S_n1q0605-54" value="" style="shape=flexArrow;endArrow=classic;html=1;rounded=0;fillColor=#f8cecc;strokeColor=#b85450;" edge="1" parent="1">
          <mxGeometry width="50" height="50" relative="1" as="geometry">
            <mxPoint x="680" y="947" as="sourcePoint" />
            <mxPoint x="510" y="997" as="targetPoint" />
          </mxGeometry>
        </mxCell>
        <mxCell id="Lpg7j5DV8L_S_n1q0605-55" value="" style="shape=flexArrow;endArrow=classic;html=1;rounded=0;fillColor=#f8cecc;strokeColor=#b85450;" edge="1" parent="1">
          <mxGeometry width="50" height="50" relative="1" as="geometry">
            <mxPoint x="520" y="1017" as="sourcePoint" />
            <mxPoint x="680" y="1067" as="targetPoint" />
          </mxGeometry>
        </mxCell>
        <mxCell id="Lpg7j5DV8L_S_n1q0605-56" value="" style="strokeWidth=2;html=1;shape=mxgraph.flowchart.annotation_2;align=left;labelPosition=right;pointerEvents=1;" vertex="1" parent="1">
          <mxGeometry x="10" y="280" width="50" height="200" as="geometry" />
        </mxCell>
        <mxCell id="Lpg7j5DV8L_S_n1q0605-57" value="&lt;font style=&quot;font-size: 18px;&quot;&gt;&lt;b&gt;Episod K Steps&lt;/b&gt;&lt;/font&gt;" style="text;html=1;align=center;verticalAlign=middle;whiteSpace=wrap;rounded=0;" vertex="1" parent="1">
          <mxGeometry x="-100" y="365" width="100" height="30" as="geometry" />
        </mxCell>
        <mxCell id="Lpg7j5DV8L_S_n1q0605-58" value="D1.G1.Sk" style="rounded=0;whiteSpace=wrap;html=1;fillColor=#A680B8;" vertex="1" parent="1">
          <mxGeometry x="80" y="657" width="80" height="60" as="geometry" />
        </mxCell>
        <mxCell id="Lpg7j5DV8L_S_n1q0605-59" value="D1.G2.Sk" style="rounded=0;whiteSpace=wrap;html=1;fillColor=#A680B8;" vertex="1" parent="1">
          <mxGeometry x="160" y="657" width="80" height="60" as="geometry" />
        </mxCell>
        <mxCell id="Lpg7j5DV8L_S_n1q0605-60" value="D1.G3.Sk" style="rounded=0;whiteSpace=wrap;html=1;fillColor=#A680B8;" vertex="1" parent="1">
          <mxGeometry x="240" y="657" width="80" height="60" as="geometry" />
        </mxCell>
        <mxCell id="Lpg7j5DV8L_S_n1q0605-61" value="D2.G1.Sk" style="rounded=0;whiteSpace=wrap;html=1;fillColor=#A9C4EB;" vertex="1" parent="1">
          <mxGeometry x="320" y="657" width="80" height="60" as="geometry" />
        </mxCell>
        <mxCell id="Lpg7j5DV8L_S_n1q0605-62" value="" style="edgeStyle=orthogonalEdgeStyle;rounded=0;orthogonalLoop=1;jettySize=auto;html=1;" edge="1" parent="1" source="Lpg7j5DV8L_S_n1q0605-63" target="Lpg7j5DV8L_S_n1q0605-68">
          <mxGeometry relative="1" as="geometry" />
        </mxCell>
        <mxCell id="Lpg7j5DV8L_S_n1q0605-63" value="D2.G2.Sk" style="rounded=0;whiteSpace=wrap;html=1;fillColor=#A9C4EB;" vertex="1" parent="1">
          <mxGeometry x="400" y="657" width="80" height="60" as="geometry" />
        </mxCell>
        <mxCell id="Lpg7j5DV8L_S_n1q0605-64" value="D2.G3.R" style="rounded=0;whiteSpace=wrap;html=1;fillColor=#A9C4EB;" vertex="1" parent="1">
          <mxGeometry x="480" y="657" width="80" height="60" as="geometry" />
        </mxCell>
        <mxCell id="Lpg7j5DV8L_S_n1q0605-65" value="DB.G1.Sk" style="rounded=0;whiteSpace=wrap;html=1;fillColor=#f8cecc;strokeColor=#b85450;" vertex="1" parent="1">
          <mxGeometry x="560" y="657" width="80" height="60" as="geometry" />
        </mxCell>
        <mxCell id="Lpg7j5DV8L_S_n1q0605-66" value="DB.G2.Sk" style="rounded=0;whiteSpace=wrap;html=1;fillColor=#f8cecc;strokeColor=#b85450;" vertex="1" parent="1">
          <mxGeometry x="640" y="657" width="80" height="60" as="geometry" />
        </mxCell>
        <mxCell id="Lpg7j5DV8L_S_n1q0605-67" value="DB.G3.Sk" style="rounded=0;whiteSpace=wrap;html=1;fillColor=#f8cecc;strokeColor=#b85450;" vertex="1" parent="1">
          <mxGeometry x="720" y="657" width="80" height="60" as="geometry" />
        </mxCell>
        <mxCell id="Lpg7j5DV8L_S_n1q0605-68" value="&lt;b&gt;Policy&lt;/b&gt;" style="shape=process;whiteSpace=wrap;html=1;backgroundOutline=1;" vertex="1" parent="1">
          <mxGeometry x="380" y="557" width="120" height="60" as="geometry" />
        </mxCell>
        <mxCell id="Lpg7j5DV8L_S_n1q0605-69" value="" style="shape=flexArrow;endArrow=classic;html=1;rounded=0;entryX=0.5;entryY=0;entryDx=0;entryDy=0;fillColor=#dae8fc;strokeColor=#6c8ebf;" edge="1" parent="1" target="Lpg7j5DV8L_S_n1q0605-68">
          <mxGeometry width="50" height="50" relative="1" as="geometry">
            <mxPoint x="440" y="527" as="sourcePoint" />
            <mxPoint x="450" y="467" as="targetPoint" />
          </mxGeometry>
        </mxCell>
        <mxCell id="Lpg7j5DV8L_S_n1q0605-70" value="" style="shape=flexArrow;endArrow=classic;html=1;rounded=0;fillColor=#e1d5e7;strokeColor=#9673a6;" edge="1" parent="1">
          <mxGeometry width="50" height="50" relative="1" as="geometry">
            <mxPoint x="200" y="527" as="sourcePoint" />
            <mxPoint x="370" y="577" as="targetPoint" />
          </mxGeometry>
        </mxCell>
        <mxCell id="Lpg7j5DV8L_S_n1q0605-71" value="" style="shape=flexArrow;endArrow=classic;html=1;rounded=0;fillColor=#f8cecc;strokeColor=#b85450;" edge="1" parent="1">
          <mxGeometry width="50" height="50" relative="1" as="geometry">
            <mxPoint x="680" y="527" as="sourcePoint" />
            <mxPoint x="510" y="577" as="targetPoint" />
          </mxGeometry>
        </mxCell>
        <mxCell id="Lpg7j5DV8L_S_n1q0605-72" value="" style="shape=flexArrow;endArrow=classic;html=1;rounded=0;fillColor=#e1d5e7;strokeColor=#9673a6;" edge="1" parent="1">
          <mxGeometry width="50" height="50" relative="1" as="geometry">
            <mxPoint x="370" y="607" as="sourcePoint" />
            <mxPoint x="210" y="647" as="targetPoint" />
          </mxGeometry>
        </mxCell>
        <mxCell id="Lpg7j5DV8L_S_n1q0605-73" value="" style="shape=flexArrow;endArrow=classic;html=1;rounded=0;fillColor=#dae8fc;strokeColor=#6c8ebf;" edge="1" parent="1">
          <mxGeometry width="50" height="50" relative="1" as="geometry">
            <mxPoint x="440" y="622" as="sourcePoint" />
            <mxPoint x="440" y="652" as="targetPoint" />
          </mxGeometry>
        </mxCell>
        <mxCell id="Lpg7j5DV8L_S_n1q0605-74" value="" style="shape=flexArrow;endArrow=classic;html=1;rounded=0;fillColor=#f8cecc;strokeColor=#b85450;" edge="1" parent="1">
          <mxGeometry width="50" height="50" relative="1" as="geometry">
            <mxPoint x="510" y="597" as="sourcePoint" />
            <mxPoint x="670" y="647" as="targetPoint" />
          </mxGeometry>
        </mxCell>
        <mxCell id="Lpg7j5DV8L_S_n1q0605-75" value="D1.G1.R" style="rounded=0;whiteSpace=wrap;html=1;fillColor=#A680B8;" vertex="1" parent="1">
          <mxGeometry x="80" y="657" width="80" height="60" as="geometry" />
        </mxCell>
        <mxCell id="Lpg7j5DV8L_S_n1q0605-76" value="D1.G2.R" style="rounded=0;whiteSpace=wrap;html=1;fillColor=#A680B8;" vertex="1" parent="1">
          <mxGeometry x="160" y="657" width="80" height="60" as="geometry" />
        </mxCell>
        <mxCell id="Lpg7j5DV8L_S_n1q0605-77" value="D1.G3.R" style="rounded=0;whiteSpace=wrap;html=1;fillColor=#A680B8;" vertex="1" parent="1">
          <mxGeometry x="240" y="657" width="80" height="60" as="geometry" />
        </mxCell>
        <mxCell id="Lpg7j5DV8L_S_n1q0605-78" value="D2.G1.R" style="rounded=0;whiteSpace=wrap;html=1;fillColor=#A9C4EB;" vertex="1" parent="1">
          <mxGeometry x="320" y="657" width="80" height="60" as="geometry" />
        </mxCell>
        <mxCell id="Lpg7j5DV8L_S_n1q0605-79" value="" style="edgeStyle=orthogonalEdgeStyle;rounded=0;orthogonalLoop=1;jettySize=auto;html=1;" edge="1" parent="1" source="Lpg7j5DV8L_S_n1q0605-80" target="Lpg7j5DV8L_S_n1q0605-85">
          <mxGeometry relative="1" as="geometry" />
        </mxCell>
        <mxCell id="Lpg7j5DV8L_S_n1q0605-80" value="D2.G2.R" style="rounded=0;whiteSpace=wrap;html=1;fillColor=#A9C4EB;" vertex="1" parent="1">
          <mxGeometry x="400" y="657" width="80" height="60" as="geometry" />
        </mxCell>
        <mxCell id="Lpg7j5DV8L_S_n1q0605-82" value="DB.G1.R" style="rounded=0;whiteSpace=wrap;html=1;fillColor=#f8cecc;strokeColor=#b85450;" vertex="1" parent="1">
          <mxGeometry x="560" y="657" width="80" height="60" as="geometry" />
        </mxCell>
        <mxCell id="Lpg7j5DV8L_S_n1q0605-83" value="DB.G2.R" style="rounded=0;whiteSpace=wrap;html=1;fillColor=#f8cecc;strokeColor=#b85450;" vertex="1" parent="1">
          <mxGeometry x="640" y="657" width="80" height="60" as="geometry" />
        </mxCell>
        <mxCell id="Lpg7j5DV8L_S_n1q0605-84" value="DB.G3.R" style="rounded=0;whiteSpace=wrap;html=1;fillColor=#f8cecc;strokeColor=#b85450;" vertex="1" parent="1">
          <mxGeometry x="720" y="657" width="80" height="60" as="geometry" />
        </mxCell>
        <mxCell id="Lpg7j5DV8L_S_n1q0605-85" value="&lt;b&gt;Reward&lt;/b&gt;" style="shape=process;whiteSpace=wrap;html=1;backgroundOutline=1;" vertex="1" parent="1">
          <mxGeometry x="380" y="557" width="120" height="60" as="geometry" />
        </mxCell>
        <mxCell id="Lpg7j5DV8L_S_n1q0605-86" value="" style="shape=flexArrow;endArrow=classic;html=1;rounded=0;entryX=0.5;entryY=0;entryDx=0;entryDy=0;fillColor=#dae8fc;strokeColor=#6c8ebf;" edge="1" parent="1" target="Lpg7j5DV8L_S_n1q0605-85">
          <mxGeometry width="50" height="50" relative="1" as="geometry">
            <mxPoint x="440" y="527" as="sourcePoint" />
            <mxPoint x="450" y="467" as="targetPoint" />
          </mxGeometry>
        </mxCell>
        <mxCell id="Lpg7j5DV8L_S_n1q0605-87" value="" style="shape=flexArrow;endArrow=classic;html=1;rounded=0;fillColor=#e1d5e7;strokeColor=#9673a6;" edge="1" parent="1">
          <mxGeometry width="50" height="50" relative="1" as="geometry">
            <mxPoint x="200" y="527" as="sourcePoint" />
            <mxPoint x="370" y="577" as="targetPoint" />
          </mxGeometry>
        </mxCell>
        <mxCell id="Lpg7j5DV8L_S_n1q0605-88" value="" style="shape=flexArrow;endArrow=classic;html=1;rounded=0;fillColor=#f8cecc;strokeColor=#b85450;" edge="1" parent="1">
          <mxGeometry width="50" height="50" relative="1" as="geometry">
            <mxPoint x="680" y="527" as="sourcePoint" />
            <mxPoint x="510" y="577" as="targetPoint" />
          </mxGeometry>
        </mxCell>
        <mxCell id="Lpg7j5DV8L_S_n1q0605-89" value="" style="shape=flexArrow;endArrow=classic;html=1;rounded=0;fillColor=#e1d5e7;strokeColor=#9673a6;" edge="1" parent="1">
          <mxGeometry width="50" height="50" relative="1" as="geometry">
            <mxPoint x="370" y="607" as="sourcePoint" />
            <mxPoint x="210" y="647" as="targetPoint" />
          </mxGeometry>
        </mxCell>
        <mxCell id="Lpg7j5DV8L_S_n1q0605-90" value="" style="shape=flexArrow;endArrow=classic;html=1;rounded=0;fillColor=#dae8fc;strokeColor=#6c8ebf;" edge="1" parent="1">
          <mxGeometry width="50" height="50" relative="1" as="geometry">
            <mxPoint x="440" y="622" as="sourcePoint" />
            <mxPoint x="440" y="652" as="targetPoint" />
          </mxGeometry>
        </mxCell>
        <mxCell id="Lpg7j5DV8L_S_n1q0605-91" value="" style="shape=flexArrow;endArrow=classic;html=1;rounded=0;fillColor=#f8cecc;strokeColor=#b85450;" edge="1" parent="1">
          <mxGeometry width="50" height="50" relative="1" as="geometry">
            <mxPoint x="510" y="597" as="sourcePoint" />
            <mxPoint x="670" y="647" as="targetPoint" />
          </mxGeometry>
        </mxCell>
        <mxCell id="Lpg7j5DV8L_S_n1q0605-92" value="" style="strokeWidth=2;html=1;shape=mxgraph.flowchart.annotation_2;align=left;labelPosition=right;pointerEvents=1;" vertex="1" parent="1">
          <mxGeometry x="10" y="587" width="50" height="200" as="geometry" />
        </mxCell>
        <mxCell id="Lpg7j5DV8L_S_n1q0605-93" value="&lt;font style=&quot;font-size: 18px;&quot;&gt;&lt;b&gt;Episod Reward&lt;/b&gt;&lt;/font&gt;" style="text;html=1;align=center;verticalAlign=middle;whiteSpace=wrap;rounded=0;" vertex="1" parent="1">
          <mxGeometry x="-100" y="672" width="100" height="30" as="geometry" />
        </mxCell>
        <mxCell id="Lpg7j5DV8L_S_n1q0605-94" value="" style="strokeWidth=2;html=1;shape=mxgraph.flowchart.annotation_2;align=left;labelPosition=right;pointerEvents=1;" vertex="1" parent="1">
          <mxGeometry x="10" y="817" width="50" height="320" as="geometry" />
        </mxCell>
        <mxCell id="Lpg7j5DV8L_S_n1q0605-95" value="&lt;font style=&quot;font-size: 18px;&quot;&gt;&lt;b&gt;Group Advantage&lt;/b&gt;&lt;/font&gt;" style="text;html=1;align=center;verticalAlign=middle;whiteSpace=wrap;rounded=0;" vertex="1" parent="1">
          <mxGeometry x="-90" y="957" width="100" height="30" as="geometry" />
        </mxCell>
        <mxCell id="Lpg7j5DV8L_S_n1q0605-133" value="&lt;font style=&quot;font-size: 18px;&quot;&gt;&lt;b&gt;Objective = Advantage * Prob&amp;nbsp;&lt;/b&gt;&lt;/font&gt;" style="text;html=1;align=center;verticalAlign=middle;whiteSpace=wrap;rounded=0;" vertex="1" parent="1">
          <mxGeometry x="980" y="1440" width="460" height="145" as="geometry" />
        </mxCell>
        <mxCell id="Lpg7j5DV8L_S_n1q0605-136" value="D1.G1.Probk" style="rounded=0;whiteSpace=wrap;html=1;fillColor=#A680B8;" vertex="1" parent="1">
          <mxGeometry x="850" y="460" width="80" height="60" as="geometry" />
        </mxCell>
        <mxCell id="Lpg7j5DV8L_S_n1q0605-137" value="D1.G2.Probk" style="rounded=0;whiteSpace=wrap;html=1;fillColor=#A680B8;" vertex="1" parent="1">
          <mxGeometry x="930" y="460" width="80" height="60" as="geometry" />
        </mxCell>
        <mxCell id="Lpg7j5DV8L_S_n1q0605-138" value="D1.G3.Probk" style="rounded=0;whiteSpace=wrap;html=1;fillColor=#A680B8;" vertex="1" parent="1">
          <mxGeometry x="1010" y="460" width="80" height="60" as="geometry" />
        </mxCell>
        <mxCell id="Lpg7j5DV8L_S_n1q0605-139" value="D2.G1.Probk" style="rounded=0;whiteSpace=wrap;html=1;fillColor=#A9C4EB;" vertex="1" parent="1">
          <mxGeometry x="1090" y="460" width="80" height="60" as="geometry" />
        </mxCell>
        <mxCell id="Lpg7j5DV8L_S_n1q0605-140" value="D2.G2.Probk" style="rounded=0;whiteSpace=wrap;html=1;fillColor=#A9C4EB;" vertex="1" parent="1">
          <mxGeometry x="1170" y="460" width="80" height="60" as="geometry" />
        </mxCell>
        <mxCell id="Lpg7j5DV8L_S_n1q0605-141" value="D2.G3.Probk" style="rounded=0;whiteSpace=wrap;html=1;fillColor=#A9C4EB;" vertex="1" parent="1">
          <mxGeometry x="1250" y="460" width="80" height="60" as="geometry" />
        </mxCell>
        <mxCell id="Lpg7j5DV8L_S_n1q0605-142" value="DB.G1.Probk" style="rounded=0;whiteSpace=wrap;html=1;fillColor=#f8cecc;strokeColor=#b85450;" vertex="1" parent="1">
          <mxGeometry x="1330" y="460" width="80" height="60" as="geometry" />
        </mxCell>
        <mxCell id="Lpg7j5DV8L_S_n1q0605-143" value="DB.G2.Probk" style="rounded=0;whiteSpace=wrap;html=1;fillColor=#f8cecc;strokeColor=#b85450;" vertex="1" parent="1">
          <mxGeometry x="1410" y="460" width="80" height="60" as="geometry" />
        </mxCell>
        <mxCell id="Lpg7j5DV8L_S_n1q0605-144" value="DB.G3.Probk" style="rounded=0;whiteSpace=wrap;html=1;fillColor=#f8cecc;strokeColor=#b85450;" vertex="1" parent="1">
          <mxGeometry x="1490" y="460" width="80" height="60" as="geometry" />
        </mxCell>
        <mxCell id="Lpg7j5DV8L_S_n1q0605-173" value="&lt;b&gt;Weighted Advantage&lt;/b&gt;" style="shape=process;whiteSpace=wrap;html=1;backgroundOutline=1;" vertex="1" parent="1">
          <mxGeometry x="810" y="1230" width="120" height="60" as="geometry" />
        </mxCell>
        <mxCell id="Lpg7j5DV8L_S_n1q0605-233" value="" style="strokeWidth=2;html=1;shape=mxgraph.flowchart.annotation_2;align=left;labelPosition=right;pointerEvents=1;rotation=-196;" vertex="1" parent="1">
          <mxGeometry x="1570" y="425" width="50" height="50" as="geometry" />
        </mxCell>
        <mxCell id="Lpg7j5DV8L_S_n1q0605-234" value="&lt;b&gt;&lt;font style=&quot;font-size: 18px;&quot;&gt;Episode Steps&lt;/font&gt;&lt;/b&gt;" style="text;html=1;align=center;verticalAlign=middle;whiteSpace=wrap;rounded=0;" vertex="1" parent="1">
          <mxGeometry x="1630" y="420" width="60" height="30" as="geometry" />
        </mxCell>
        <mxCell id="Lpg7j5DV8L_S_n1q0605-235" value="D1.G1.Log-JOIN-Prob" style="rounded=0;whiteSpace=wrap;html=1;fillColor=#A680B8;" vertex="1" parent="1">
          <mxGeometry x="850" y="657" width="80" height="60" as="geometry" />
        </mxCell>
        <mxCell id="Lpg7j5DV8L_S_n1q0605-236" value="D1.G2.Log-JOIN-Prob" style="rounded=0;whiteSpace=wrap;html=1;fillColor=#A680B8;" vertex="1" parent="1">
          <mxGeometry x="930" y="657" width="80" height="60" as="geometry" />
        </mxCell>
        <mxCell id="Lpg7j5DV8L_S_n1q0605-237" value="D1.G3.Log-JOIN-Prob" style="rounded=0;whiteSpace=wrap;html=1;fillColor=#A680B8;" vertex="1" parent="1">
          <mxGeometry x="1010" y="657" width="80" height="60" as="geometry" />
        </mxCell>
        <mxCell id="Lpg7j5DV8L_S_n1q0605-238" value="D2.G1.Log-JOIN-Prob" style="rounded=0;whiteSpace=wrap;html=1;fillColor=#A9C4EB;" vertex="1" parent="1">
          <mxGeometry x="1090" y="657" width="80" height="60" as="geometry" />
        </mxCell>
        <mxCell id="Lpg7j5DV8L_S_n1q0605-239" value="D2.G2.Log-JOIN-Prob" style="rounded=0;whiteSpace=wrap;html=1;fillColor=#A9C4EB;" vertex="1" parent="1">
          <mxGeometry x="1170" y="657" width="80" height="60" as="geometry" />
        </mxCell>
        <mxCell id="Lpg7j5DV8L_S_n1q0605-240" value="D2.G3.Log-JOIN-Prob" style="rounded=0;whiteSpace=wrap;html=1;fillColor=#A9C4EB;" vertex="1" parent="1">
          <mxGeometry x="1250" y="657" width="80" height="60" as="geometry" />
        </mxCell>
        <mxCell id="Lpg7j5DV8L_S_n1q0605-241" value="DB.G1.Log-JOIN-Prob" style="rounded=0;whiteSpace=wrap;html=1;fillColor=#f8cecc;strokeColor=#b85450;" vertex="1" parent="1">
          <mxGeometry x="1330" y="657" width="80" height="60" as="geometry" />
        </mxCell>
        <mxCell id="Lpg7j5DV8L_S_n1q0605-242" value="DB.G2.Log-JOIN-Prob" style="rounded=0;whiteSpace=wrap;html=1;fillColor=#f8cecc;strokeColor=#b85450;" vertex="1" parent="1">
          <mxGeometry x="1410" y="657" width="80" height="60" as="geometry" />
        </mxCell>
        <mxCell id="Lpg7j5DV8L_S_n1q0605-243" value="DB.G3.Log-JOIN-Prob" style="rounded=0;whiteSpace=wrap;html=1;fillColor=#f8cecc;strokeColor=#b85450;" vertex="1" parent="1">
          <mxGeometry x="1490" y="657" width="80" height="60" as="geometry" />
        </mxCell>
        <mxCell id="Lpg7j5DV8L_S_n1q0605-245" value="D1.G1.Sk" style="rounded=0;whiteSpace=wrap;html=1;fillColor=#A680B8;" vertex="1" parent="1">
          <mxGeometry x="90" y="450" width="80" height="60" as="geometry" />
        </mxCell>
        <mxCell id="Lpg7j5DV8L_S_n1q0605-246" value="D1.G2.Sk" style="rounded=0;whiteSpace=wrap;html=1;fillColor=#A680B8;" vertex="1" parent="1">
          <mxGeometry x="170" y="450" width="80" height="60" as="geometry" />
        </mxCell>
        <mxCell id="Lpg7j5DV8L_S_n1q0605-247" value="D1.G3.Sk" style="rounded=0;whiteSpace=wrap;html=1;fillColor=#A680B8;" vertex="1" parent="1">
          <mxGeometry x="250" y="450" width="80" height="60" as="geometry" />
        </mxCell>
        <mxCell id="Lpg7j5DV8L_S_n1q0605-248" value="D2.G1.Sk" style="rounded=0;whiteSpace=wrap;html=1;fillColor=#A9C4EB;" vertex="1" parent="1">
          <mxGeometry x="330" y="450" width="80" height="60" as="geometry" />
        </mxCell>
        <mxCell id="Lpg7j5DV8L_S_n1q0605-249" value="D2.G2.Sk" style="rounded=0;whiteSpace=wrap;html=1;fillColor=#A9C4EB;" vertex="1" parent="1">
          <mxGeometry x="410" y="450" width="80" height="60" as="geometry" />
        </mxCell>
        <mxCell id="Lpg7j5DV8L_S_n1q0605-250" value="D2.G3.Sk" style="rounded=0;whiteSpace=wrap;html=1;fillColor=#A9C4EB;" vertex="1" parent="1">
          <mxGeometry x="490" y="450" width="80" height="60" as="geometry" />
        </mxCell>
        <mxCell id="Lpg7j5DV8L_S_n1q0605-251" value="DB.G1.Sk" style="rounded=0;whiteSpace=wrap;html=1;fillColor=#f8cecc;strokeColor=#b85450;" vertex="1" parent="1">
          <mxGeometry x="570" y="450" width="80" height="60" as="geometry" />
        </mxCell>
        <mxCell id="Lpg7j5DV8L_S_n1q0605-252" value="DB.G2.Sk" style="rounded=0;whiteSpace=wrap;html=1;fillColor=#f8cecc;strokeColor=#b85450;" vertex="1" parent="1">
          <mxGeometry x="650" y="450" width="80" height="60" as="geometry" />
        </mxCell>
        <mxCell id="Lpg7j5DV8L_S_n1q0605-253" value="DB.G3.Sk" style="rounded=0;whiteSpace=wrap;html=1;fillColor=#f8cecc;strokeColor=#b85450;" vertex="1" parent="1">
          <mxGeometry x="730" y="450" width="80" height="60" as="geometry" />
        </mxCell>
        <mxCell id="Lpg7j5DV8L_S_n1q0605-254" value="D1.G1.Sk" style="rounded=0;whiteSpace=wrap;html=1;fillColor=#A680B8;" vertex="1" parent="1">
          <mxGeometry x="90" y="450" width="80" height="60" as="geometry" />
        </mxCell>
        <mxCell id="Lpg7j5DV8L_S_n1q0605-255" value="D1.G2.Sk" style="rounded=0;whiteSpace=wrap;html=1;fillColor=#A680B8;" vertex="1" parent="1">
          <mxGeometry x="170" y="450" width="80" height="60" as="geometry" />
        </mxCell>
        <mxCell id="Lpg7j5DV8L_S_n1q0605-256" value="D1.G3.Sk" style="rounded=0;whiteSpace=wrap;html=1;fillColor=#A680B8;" vertex="1" parent="1">
          <mxGeometry x="250" y="450" width="80" height="60" as="geometry" />
        </mxCell>
        <mxCell id="Lpg7j5DV8L_S_n1q0605-257" value="D2.G1.Sk" style="rounded=0;whiteSpace=wrap;html=1;fillColor=#A9C4EB;" vertex="1" parent="1">
          <mxGeometry x="330" y="450" width="80" height="60" as="geometry" />
        </mxCell>
        <mxCell id="Lpg7j5DV8L_S_n1q0605-258" value="D2.G2.Sk" style="rounded=0;whiteSpace=wrap;html=1;fillColor=#A9C4EB;" vertex="1" parent="1">
          <mxGeometry x="410" y="450" width="80" height="60" as="geometry" />
        </mxCell>
        <mxCell id="Lpg7j5DV8L_S_n1q0605-259" value="D2.G3.Sk" style="rounded=0;whiteSpace=wrap;html=1;fillColor=#A9C4EB;" vertex="1" parent="1">
          <mxGeometry x="490" y="450" width="80" height="60" as="geometry" />
        </mxCell>
        <mxCell id="Lpg7j5DV8L_S_n1q0605-260" value="DB.G1.Sk" style="rounded=0;whiteSpace=wrap;html=1;fillColor=#f8cecc;strokeColor=#b85450;" vertex="1" parent="1">
          <mxGeometry x="570" y="450" width="80" height="60" as="geometry" />
        </mxCell>
        <mxCell id="Lpg7j5DV8L_S_n1q0605-261" value="DB.G2.Sk" style="rounded=0;whiteSpace=wrap;html=1;fillColor=#f8cecc;strokeColor=#b85450;" vertex="1" parent="1">
          <mxGeometry x="650" y="450" width="80" height="60" as="geometry" />
        </mxCell>
        <mxCell id="Lpg7j5DV8L_S_n1q0605-262" value="DB.G3.Sk" style="rounded=0;whiteSpace=wrap;html=1;fillColor=#f8cecc;strokeColor=#b85450;" vertex="1" parent="1">
          <mxGeometry x="730" y="450" width="80" height="60" as="geometry" />
        </mxCell>
        <mxCell id="Lpg7j5DV8L_S_n1q0605-263" value="D1.G1.Sk" style="rounded=0;whiteSpace=wrap;html=1;fillColor=#A680B8;" vertex="1" parent="1">
          <mxGeometry x="100" y="460" width="80" height="60" as="geometry" />
        </mxCell>
        <mxCell id="Lpg7j5DV8L_S_n1q0605-264" value="D1.G2.Sk" style="rounded=0;whiteSpace=wrap;html=1;fillColor=#A680B8;" vertex="1" parent="1">
          <mxGeometry x="180" y="460" width="80" height="60" as="geometry" />
        </mxCell>
        <mxCell id="Lpg7j5DV8L_S_n1q0605-265" value="D1.G3.Sk" style="rounded=0;whiteSpace=wrap;html=1;fillColor=#A680B8;" vertex="1" parent="1">
          <mxGeometry x="260" y="460" width="80" height="60" as="geometry" />
        </mxCell>
        <mxCell id="Lpg7j5DV8L_S_n1q0605-266" value="D2.G1.Sk" style="rounded=0;whiteSpace=wrap;html=1;fillColor=#A9C4EB;" vertex="1" parent="1">
          <mxGeometry x="340" y="460" width="80" height="60" as="geometry" />
        </mxCell>
        <mxCell id="Lpg7j5DV8L_S_n1q0605-267" value="D2.G2.Sk" style="rounded=0;whiteSpace=wrap;html=1;fillColor=#A9C4EB;" vertex="1" parent="1">
          <mxGeometry x="420" y="460" width="80" height="60" as="geometry" />
        </mxCell>
        <mxCell id="Lpg7j5DV8L_S_n1q0605-268" value="D2.G3.Sk" style="rounded=0;whiteSpace=wrap;html=1;fillColor=#A9C4EB;" vertex="1" parent="1">
          <mxGeometry x="500" y="460" width="80" height="60" as="geometry" />
        </mxCell>
        <mxCell id="Lpg7j5DV8L_S_n1q0605-269" value="DB.G1.Sk" style="rounded=0;whiteSpace=wrap;html=1;fillColor=#f8cecc;strokeColor=#b85450;" vertex="1" parent="1">
          <mxGeometry x="580" y="460" width="80" height="60" as="geometry" />
        </mxCell>
        <mxCell id="Lpg7j5DV8L_S_n1q0605-270" value="DB.G2.Sk" style="rounded=0;whiteSpace=wrap;html=1;fillColor=#f8cecc;strokeColor=#b85450;" vertex="1" parent="1">
          <mxGeometry x="660" y="460" width="80" height="60" as="geometry" />
        </mxCell>
        <mxCell id="Lpg7j5DV8L_S_n1q0605-271" value="DB.G3.Sk" style="rounded=0;whiteSpace=wrap;html=1;fillColor=#f8cecc;strokeColor=#b85450;" vertex="1" parent="1">
          <mxGeometry x="740" y="460" width="80" height="60" as="geometry" />
        </mxCell>
        <mxCell id="Lpg7j5DV8L_S_n1q0605-272" value="D1.G1.Sk" style="rounded=0;whiteSpace=wrap;html=1;fillColor=#A680B8;" vertex="1" parent="1">
          <mxGeometry x="100" y="460" width="80" height="60" as="geometry" />
        </mxCell>
        <mxCell id="Lpg7j5DV8L_S_n1q0605-273" value="D1.G2.Sk" style="rounded=0;whiteSpace=wrap;html=1;fillColor=#A680B8;" vertex="1" parent="1">
          <mxGeometry x="180" y="460" width="80" height="60" as="geometry" />
        </mxCell>
        <mxCell id="Lpg7j5DV8L_S_n1q0605-274" value="D1.G3.Sk" style="rounded=0;whiteSpace=wrap;html=1;fillColor=#A680B8;" vertex="1" parent="1">
          <mxGeometry x="260" y="460" width="80" height="60" as="geometry" />
        </mxCell>
        <mxCell id="Lpg7j5DV8L_S_n1q0605-275" value="D2.G1.Sk" style="rounded=0;whiteSpace=wrap;html=1;fillColor=#A9C4EB;" vertex="1" parent="1">
          <mxGeometry x="340" y="460" width="80" height="60" as="geometry" />
        </mxCell>
        <mxCell id="Lpg7j5DV8L_S_n1q0605-276" value="D2.G2.Sk" style="rounded=0;whiteSpace=wrap;html=1;fillColor=#A9C4EB;" vertex="1" parent="1">
          <mxGeometry x="420" y="460" width="80" height="60" as="geometry" />
        </mxCell>
        <mxCell id="Lpg7j5DV8L_S_n1q0605-277" value="D2.G3.Sk" style="rounded=0;whiteSpace=wrap;html=1;fillColor=#A9C4EB;" vertex="1" parent="1">
          <mxGeometry x="500" y="460" width="80" height="60" as="geometry" />
        </mxCell>
        <mxCell id="Lpg7j5DV8L_S_n1q0605-278" value="DB.G1.Sk" style="rounded=0;whiteSpace=wrap;html=1;fillColor=#f8cecc;strokeColor=#b85450;" vertex="1" parent="1">
          <mxGeometry x="580" y="460" width="80" height="60" as="geometry" />
        </mxCell>
        <mxCell id="Lpg7j5DV8L_S_n1q0605-279" value="DB.G2.Sk" style="rounded=0;whiteSpace=wrap;html=1;fillColor=#f8cecc;strokeColor=#b85450;" vertex="1" parent="1">
          <mxGeometry x="660" y="460" width="80" height="60" as="geometry" />
        </mxCell>
        <mxCell id="Lpg7j5DV8L_S_n1q0605-280" value="DB.G3.Sk" style="rounded=0;whiteSpace=wrap;html=1;fillColor=#f8cecc;strokeColor=#b85450;" vertex="1" parent="1">
          <mxGeometry x="740" y="460" width="80" height="60" as="geometry" />
        </mxCell>
        <mxCell id="Lpg7j5DV8L_S_n1q0605-281" value="" style="edgeStyle=orthogonalEdgeStyle;rounded=0;orthogonalLoop=1;jettySize=auto;html=1;" edge="1" parent="1" target="Lpg7j5DV8L_S_n1q0605-282">
          <mxGeometry relative="1" as="geometry">
            <mxPoint x="1210" y="657" as="sourcePoint" />
          </mxGeometry>
        </mxCell>
        <mxCell id="Lpg7j5DV8L_S_n1q0605-282" value="&lt;b&gt;Policy&lt;/b&gt;" style="shape=process;whiteSpace=wrap;html=1;backgroundOutline=1;" vertex="1" parent="1">
          <mxGeometry x="1150" y="557" width="120" height="60" as="geometry" />
        </mxCell>
        <mxCell id="Lpg7j5DV8L_S_n1q0605-283" value="" style="shape=flexArrow;endArrow=classic;html=1;rounded=0;entryX=0.5;entryY=0;entryDx=0;entryDy=0;fillColor=#dae8fc;strokeColor=#6c8ebf;" edge="1" parent="1" target="Lpg7j5DV8L_S_n1q0605-282">
          <mxGeometry width="50" height="50" relative="1" as="geometry">
            <mxPoint x="1210" y="527" as="sourcePoint" />
            <mxPoint x="1220" y="467" as="targetPoint" />
          </mxGeometry>
        </mxCell>
        <mxCell id="Lpg7j5DV8L_S_n1q0605-284" value="" style="shape=flexArrow;endArrow=classic;html=1;rounded=0;fillColor=#e1d5e7;strokeColor=#9673a6;" edge="1" parent="1">
          <mxGeometry width="50" height="50" relative="1" as="geometry">
            <mxPoint x="970" y="527" as="sourcePoint" />
            <mxPoint x="1140" y="577" as="targetPoint" />
          </mxGeometry>
        </mxCell>
        <mxCell id="Lpg7j5DV8L_S_n1q0605-285" value="" style="shape=flexArrow;endArrow=classic;html=1;rounded=0;fillColor=#f8cecc;strokeColor=#b85450;" edge="1" parent="1">
          <mxGeometry width="50" height="50" relative="1" as="geometry">
            <mxPoint x="1450" y="527" as="sourcePoint" />
            <mxPoint x="1280" y="577" as="targetPoint" />
          </mxGeometry>
        </mxCell>
        <mxCell id="Lpg7j5DV8L_S_n1q0605-286" value="" style="shape=flexArrow;endArrow=classic;html=1;rounded=0;fillColor=#e1d5e7;strokeColor=#9673a6;" edge="1" parent="1">
          <mxGeometry width="50" height="50" relative="1" as="geometry">
            <mxPoint x="1140" y="607" as="sourcePoint" />
            <mxPoint x="980" y="647" as="targetPoint" />
          </mxGeometry>
        </mxCell>
        <mxCell id="Lpg7j5DV8L_S_n1q0605-287" value="" style="shape=flexArrow;endArrow=classic;html=1;rounded=0;fillColor=#dae8fc;strokeColor=#6c8ebf;" edge="1" parent="1">
          <mxGeometry width="50" height="50" relative="1" as="geometry">
            <mxPoint x="1210" y="622" as="sourcePoint" />
            <mxPoint x="1210" y="652" as="targetPoint" />
          </mxGeometry>
        </mxCell>
        <mxCell id="Lpg7j5DV8L_S_n1q0605-288" value="" style="shape=flexArrow;endArrow=classic;html=1;rounded=0;fillColor=#f8cecc;strokeColor=#b85450;" edge="1" parent="1">
          <mxGeometry width="50" height="50" relative="1" as="geometry">
            <mxPoint x="1280" y="597" as="sourcePoint" />
            <mxPoint x="1440" y="647" as="targetPoint" />
          </mxGeometry>
        </mxCell>
        <mxCell id="Lpg7j5DV8L_S_n1q0605-289" value="" style="edgeStyle=orthogonalEdgeStyle;rounded=0;orthogonalLoop=1;jettySize=auto;html=1;" edge="1" parent="1" target="Lpg7j5DV8L_S_n1q0605-290">
          <mxGeometry relative="1" as="geometry">
            <mxPoint x="1210" y="657" as="sourcePoint" />
          </mxGeometry>
        </mxCell>
        <mxCell id="Lpg7j5DV8L_S_n1q0605-290" value="&lt;b&gt;Log JOIN Prob&lt;/b&gt;" style="shape=process;whiteSpace=wrap;html=1;backgroundOutline=1;" vertex="1" parent="1">
          <mxGeometry x="1150" y="557" width="120" height="60" as="geometry" />
        </mxCell>
        <mxCell id="Lpg7j5DV8L_S_n1q0605-291" value="" style="shape=flexArrow;endArrow=classic;html=1;rounded=0;entryX=0.5;entryY=0;entryDx=0;entryDy=0;fillColor=#dae8fc;strokeColor=#6c8ebf;" edge="1" parent="1" target="Lpg7j5DV8L_S_n1q0605-290">
          <mxGeometry width="50" height="50" relative="1" as="geometry">
            <mxPoint x="1210" y="527" as="sourcePoint" />
            <mxPoint x="1220" y="467" as="targetPoint" />
          </mxGeometry>
        </mxCell>
        <mxCell id="Lpg7j5DV8L_S_n1q0605-292" value="" style="shape=flexArrow;endArrow=classic;html=1;rounded=0;fillColor=#e1d5e7;strokeColor=#9673a6;" edge="1" parent="1">
          <mxGeometry width="50" height="50" relative="1" as="geometry">
            <mxPoint x="970" y="527" as="sourcePoint" />
            <mxPoint x="1140" y="577" as="targetPoint" />
          </mxGeometry>
        </mxCell>
        <mxCell id="Lpg7j5DV8L_S_n1q0605-293" value="" style="shape=flexArrow;endArrow=classic;html=1;rounded=0;fillColor=#f8cecc;strokeColor=#b85450;" edge="1" parent="1">
          <mxGeometry width="50" height="50" relative="1" as="geometry">
            <mxPoint x="1450" y="527" as="sourcePoint" />
            <mxPoint x="1280" y="577" as="targetPoint" />
          </mxGeometry>
        </mxCell>
        <mxCell id="Lpg7j5DV8L_S_n1q0605-294" value="" style="shape=flexArrow;endArrow=classic;html=1;rounded=0;fillColor=#e1d5e7;strokeColor=#9673a6;" edge="1" parent="1">
          <mxGeometry width="50" height="50" relative="1" as="geometry">
            <mxPoint x="1140" y="607" as="sourcePoint" />
            <mxPoint x="980" y="647" as="targetPoint" />
          </mxGeometry>
        </mxCell>
        <mxCell id="Lpg7j5DV8L_S_n1q0605-295" value="" style="shape=flexArrow;endArrow=classic;html=1;rounded=0;fillColor=#dae8fc;strokeColor=#6c8ebf;" edge="1" parent="1">
          <mxGeometry width="50" height="50" relative="1" as="geometry">
            <mxPoint x="1210" y="622" as="sourcePoint" />
            <mxPoint x="1210" y="652" as="targetPoint" />
          </mxGeometry>
        </mxCell>
        <mxCell id="Lpg7j5DV8L_S_n1q0605-296" value="" style="shape=flexArrow;endArrow=classic;html=1;rounded=0;fillColor=#f8cecc;strokeColor=#b85450;" edge="1" parent="1">
          <mxGeometry width="50" height="50" relative="1" as="geometry">
            <mxPoint x="1280" y="597" as="sourcePoint" />
            <mxPoint x="1440" y="647" as="targetPoint" />
          </mxGeometry>
        </mxCell>
        <mxCell id="Lpg7j5DV8L_S_n1q0605-297" value="D1.G1.Sk" style="rounded=0;whiteSpace=wrap;html=1;fillColor=#A680B8;" vertex="1" parent="1">
          <mxGeometry x="80" y="1077" width="80" height="60" as="geometry" />
        </mxCell>
        <mxCell id="Lpg7j5DV8L_S_n1q0605-298" value="D1.G2.Sk" style="rounded=0;whiteSpace=wrap;html=1;fillColor=#A680B8;" vertex="1" parent="1">
          <mxGeometry x="160" y="1077" width="80" height="60" as="geometry" />
        </mxCell>
        <mxCell id="Lpg7j5DV8L_S_n1q0605-299" value="D1.G3.Sk" style="rounded=0;whiteSpace=wrap;html=1;fillColor=#A680B8;" vertex="1" parent="1">
          <mxGeometry x="240" y="1077" width="80" height="60" as="geometry" />
        </mxCell>
        <mxCell id="Lpg7j5DV8L_S_n1q0605-300" value="D2.G1.Sk" style="rounded=0;whiteSpace=wrap;html=1;fillColor=#A9C4EB;" vertex="1" parent="1">
          <mxGeometry x="320" y="1077" width="80" height="60" as="geometry" />
        </mxCell>
        <mxCell id="Lpg7j5DV8L_S_n1q0605-301" value="D2.G2.Sk" style="rounded=0;whiteSpace=wrap;html=1;fillColor=#A9C4EB;" vertex="1" parent="1">
          <mxGeometry x="400" y="1077" width="80" height="60" as="geometry" />
        </mxCell>
        <mxCell id="Lpg7j5DV8L_S_n1q0605-302" value="D2.G3.Adv" style="rounded=0;whiteSpace=wrap;html=1;fillColor=#A9C4EB;" vertex="1" parent="1">
          <mxGeometry x="480" y="1077" width="80" height="60" as="geometry" />
        </mxCell>
        <mxCell id="Lpg7j5DV8L_S_n1q0605-303" value="DB.G1.Sk" style="rounded=0;whiteSpace=wrap;html=1;fillColor=#f8cecc;strokeColor=#b85450;" vertex="1" parent="1">
          <mxGeometry x="560" y="1077" width="80" height="60" as="geometry" />
        </mxCell>
        <mxCell id="Lpg7j5DV8L_S_n1q0605-304" value="DB.G2.Sk" style="rounded=0;whiteSpace=wrap;html=1;fillColor=#f8cecc;strokeColor=#b85450;" vertex="1" parent="1">
          <mxGeometry x="640" y="1077" width="80" height="60" as="geometry" />
        </mxCell>
        <mxCell id="Lpg7j5DV8L_S_n1q0605-305" value="DB.G3.Sk" style="rounded=0;whiteSpace=wrap;html=1;fillColor=#f8cecc;strokeColor=#b85450;" vertex="1" parent="1">
          <mxGeometry x="720" y="1077" width="80" height="60" as="geometry" />
        </mxCell>
        <mxCell id="Lpg7j5DV8L_S_n1q0605-306" value="D1.G1.Adv" style="rounded=0;whiteSpace=wrap;html=1;fillColor=#A680B8;" vertex="1" parent="1">
          <mxGeometry x="80" y="1077" width="80" height="60" as="geometry" />
        </mxCell>
        <mxCell id="Lpg7j5DV8L_S_n1q0605-307" value="D1.G2.Adv" style="rounded=0;whiteSpace=wrap;html=1;fillColor=#A680B8;" vertex="1" parent="1">
          <mxGeometry x="160" y="1077" width="80" height="60" as="geometry" />
        </mxCell>
        <mxCell id="Lpg7j5DV8L_S_n1q0605-308" value="D1.G3.Adv" style="rounded=0;whiteSpace=wrap;html=1;fillColor=#A680B8;" vertex="1" parent="1">
          <mxGeometry x="240" y="1077" width="80" height="60" as="geometry" />
        </mxCell>
        <mxCell id="Lpg7j5DV8L_S_n1q0605-309" value="D2.G1.Adv" style="rounded=0;whiteSpace=wrap;html=1;fillColor=#A9C4EB;" vertex="1" parent="1">
          <mxGeometry x="320" y="1077" width="80" height="60" as="geometry" />
        </mxCell>
        <mxCell id="Lpg7j5DV8L_S_n1q0605-310" value="D2.G2.Adv" style="rounded=0;whiteSpace=wrap;html=1;fillColor=#A9C4EB;" vertex="1" parent="1">
          <mxGeometry x="400" y="1077" width="80" height="60" as="geometry" />
        </mxCell>
        <mxCell id="Lpg7j5DV8L_S_n1q0605-311" value="DB.G1.Adv" style="rounded=0;whiteSpace=wrap;html=1;fillColor=#f8cecc;strokeColor=#b85450;" vertex="1" parent="1">
          <mxGeometry x="560" y="1077" width="80" height="60" as="geometry" />
        </mxCell>
        <mxCell id="Lpg7j5DV8L_S_n1q0605-312" value="DB.G2.Adv" style="rounded=0;whiteSpace=wrap;html=1;fillColor=#f8cecc;strokeColor=#b85450;" vertex="1" parent="1">
          <mxGeometry x="640" y="1077" width="80" height="60" as="geometry" />
        </mxCell>
        <mxCell id="Lpg7j5DV8L_S_n1q0605-313" value="DB.G3.Adv" style="rounded=0;whiteSpace=wrap;html=1;fillColor=#f8cecc;strokeColor=#b85450;" vertex="1" parent="1">
          <mxGeometry x="720" y="1077" width="80" height="60" as="geometry" />
        </mxCell>
        <mxCell id="Lpg7j5DV8L_S_n1q0605-316" value="" style="shape=flexArrow;endArrow=classic;html=1;rounded=0;fillColor=#e1d5e7;strokeColor=#9673a6;" edge="1" parent="1">
          <mxGeometry width="50" height="50" relative="1" as="geometry">
            <mxPoint x="190" y="1150" as="sourcePoint" />
            <mxPoint x="800" y="1250" as="targetPoint" />
          </mxGeometry>
        </mxCell>
        <mxCell id="Lpg7j5DV8L_S_n1q0605-317" value="" style="shape=flexArrow;endArrow=classic;html=1;rounded=0;fillColor=#dae8fc;strokeColor=#6c8ebf;" edge="1" parent="1">
          <mxGeometry width="50" height="50" relative="1" as="geometry">
            <mxPoint x="440" y="1150" as="sourcePoint" />
            <mxPoint x="790" y="1220" as="targetPoint" />
          </mxGeometry>
        </mxCell>
        <mxCell id="Lpg7j5DV8L_S_n1q0605-318" value="" style="shape=flexArrow;endArrow=classic;html=1;rounded=0;fillColor=#f8cecc;strokeColor=#b85450;" edge="1" parent="1">
          <mxGeometry width="50" height="50" relative="1" as="geometry">
            <mxPoint x="660" y="1150" as="sourcePoint" />
            <mxPoint x="820" y="1200" as="targetPoint" />
          </mxGeometry>
        </mxCell>
        <mxCell id="Lpg7j5DV8L_S_n1q0605-319" value="" style="shape=flexArrow;endArrow=classic;html=1;rounded=0;fillColor=#e1d5e7;strokeColor=#9673a6;" edge="1" parent="1">
          <mxGeometry width="50" height="50" relative="1" as="geometry">
            <mxPoint x="1010" y="740" as="sourcePoint" />
            <mxPoint x="860" y="1200" as="targetPoint" />
          </mxGeometry>
        </mxCell>
        <mxCell id="Lpg7j5DV8L_S_n1q0605-320" value="" style="shape=flexArrow;endArrow=classic;html=1;rounded=0;fillColor=#dae8fc;strokeColor=#6c8ebf;" edge="1" parent="1">
          <mxGeometry width="50" height="50" relative="1" as="geometry">
            <mxPoint x="1202" y="730" as="sourcePoint" />
            <mxPoint x="890" y="1210" as="targetPoint" />
          </mxGeometry>
        </mxCell>
        <mxCell id="Lpg7j5DV8L_S_n1q0605-321" value="" style="shape=flexArrow;endArrow=classic;html=1;rounded=0;fillColor=#f8cecc;strokeColor=#b85450;" edge="1" parent="1">
          <mxGeometry width="50" height="50" relative="1" as="geometry">
            <mxPoint x="1455" y="737" as="sourcePoint" />
            <mxPoint x="930" y="1210" as="targetPoint" />
          </mxGeometry>
        </mxCell>
        <mxCell id="Lpg7j5DV8L_S_n1q0605-322" value="D1.G1.Sk" style="rounded=0;whiteSpace=wrap;html=1;fillColor=#A680B8;" vertex="1" parent="1">
          <mxGeometry x="510" y="1330" width="80" height="60" as="geometry" />
        </mxCell>
        <mxCell id="Lpg7j5DV8L_S_n1q0605-323" value="D1.G2.Sk" style="rounded=0;whiteSpace=wrap;html=1;fillColor=#A680B8;" vertex="1" parent="1">
          <mxGeometry x="590" y="1330" width="80" height="60" as="geometry" />
        </mxCell>
        <mxCell id="Lpg7j5DV8L_S_n1q0605-324" value="D1.G3.Sk" style="rounded=0;whiteSpace=wrap;html=1;fillColor=#A680B8;" vertex="1" parent="1">
          <mxGeometry x="670" y="1330" width="80" height="60" as="geometry" />
        </mxCell>
        <mxCell id="Lpg7j5DV8L_S_n1q0605-325" value="D2.G1.Sk" style="rounded=0;whiteSpace=wrap;html=1;fillColor=#A9C4EB;" vertex="1" parent="1">
          <mxGeometry x="750" y="1330" width="80" height="60" as="geometry" />
        </mxCell>
        <mxCell id="Lpg7j5DV8L_S_n1q0605-326" value="D2.G2.Sk" style="rounded=0;whiteSpace=wrap;html=1;fillColor=#A9C4EB;" vertex="1" parent="1">
          <mxGeometry x="830" y="1330" width="80" height="60" as="geometry" />
        </mxCell>
        <mxCell id="Lpg7j5DV8L_S_n1q0605-327" value="D2.G3 Weighted Adv" style="rounded=0;whiteSpace=wrap;html=1;fillColor=#A9C4EB;" vertex="1" parent="1">
          <mxGeometry x="910" y="1330" width="80" height="60" as="geometry" />
        </mxCell>
        <mxCell id="Lpg7j5DV8L_S_n1q0605-328" value="DB.G1.Sk" style="rounded=0;whiteSpace=wrap;html=1;fillColor=#f8cecc;strokeColor=#b85450;" vertex="1" parent="1">
          <mxGeometry x="990" y="1330" width="80" height="60" as="geometry" />
        </mxCell>
        <mxCell id="Lpg7j5DV8L_S_n1q0605-329" value="DB.G2.Sk" style="rounded=0;whiteSpace=wrap;html=1;fillColor=#f8cecc;strokeColor=#b85450;" vertex="1" parent="1">
          <mxGeometry x="1070" y="1330" width="80" height="60" as="geometry" />
        </mxCell>
        <mxCell id="Lpg7j5DV8L_S_n1q0605-330" value="DB.G3.Sk" style="rounded=0;whiteSpace=wrap;html=1;fillColor=#f8cecc;strokeColor=#b85450;" vertex="1" parent="1">
          <mxGeometry x="1150" y="1330" width="80" height="60" as="geometry" />
        </mxCell>
        <mxCell id="Lpg7j5DV8L_S_n1q0605-331" value="D1.G1 Weighted Adv" style="rounded=0;whiteSpace=wrap;html=1;fillColor=#A680B8;" vertex="1" parent="1">
          <mxGeometry x="510" y="1330" width="80" height="60" as="geometry" />
        </mxCell>
        <mxCell id="Lpg7j5DV8L_S_n1q0605-332" value="D1.G2 Weighted Adv" style="rounded=0;whiteSpace=wrap;html=1;fillColor=#A680B8;" vertex="1" parent="1">
          <mxGeometry x="590" y="1330" width="80" height="60" as="geometry" />
        </mxCell>
        <mxCell id="Lpg7j5DV8L_S_n1q0605-333" value="D1.G3 Weighted Adv" style="rounded=0;whiteSpace=wrap;html=1;fillColor=#A680B8;" vertex="1" parent="1">
          <mxGeometry x="670" y="1330" width="80" height="60" as="geometry" />
        </mxCell>
        <mxCell id="Lpg7j5DV8L_S_n1q0605-334" value="D2.G1 Weighted Adv" style="rounded=0;whiteSpace=wrap;html=1;fillColor=#A9C4EB;" vertex="1" parent="1">
          <mxGeometry x="750" y="1330" width="80" height="60" as="geometry" />
        </mxCell>
        <mxCell id="Lpg7j5DV8L_S_n1q0605-335" value="D2.G2 Weighted Adv" style="rounded=0;whiteSpace=wrap;html=1;fillColor=#A9C4EB;" vertex="1" parent="1">
          <mxGeometry x="830" y="1330" width="80" height="60" as="geometry" />
        </mxCell>
        <mxCell id="Lpg7j5DV8L_S_n1q0605-336" value="D3.G1 Weighted Adv" style="rounded=0;whiteSpace=wrap;html=1;fillColor=#f8cecc;strokeColor=#b85450;" vertex="1" parent="1">
          <mxGeometry x="990" y="1330" width="80" height="60" as="geometry" />
        </mxCell>
        <mxCell id="Lpg7j5DV8L_S_n1q0605-337" value="D3.G2 Weighted Adv" style="rounded=0;whiteSpace=wrap;html=1;fillColor=#f8cecc;strokeColor=#b85450;" vertex="1" parent="1">
          <mxGeometry x="1070" y="1330" width="80" height="60" as="geometry" />
        </mxCell>
        <mxCell id="Lpg7j5DV8L_S_n1q0605-338" value="D3.G3 Weighted Adv" style="rounded=0;whiteSpace=wrap;html=1;fillColor=#f8cecc;strokeColor=#b85450;" vertex="1" parent="1">
          <mxGeometry x="1150" y="1330" width="80" height="60" as="geometry" />
        </mxCell>
        <mxCell id="Lpg7j5DV8L_S_n1q0605-339" value="" style="shape=flexArrow;endArrow=classic;html=1;rounded=0;fillColor=#e1d5e7;strokeColor=#9673a6;" edge="1" parent="1">
          <mxGeometry width="50" height="50" relative="1" as="geometry">
            <mxPoint x="800" y="1280" as="sourcePoint" />
            <mxPoint x="640" y="1320" as="targetPoint" />
          </mxGeometry>
        </mxCell>
        <mxCell id="Lpg7j5DV8L_S_n1q0605-340" value="" style="shape=flexArrow;endArrow=classic;html=1;rounded=0;fillColor=#dae8fc;strokeColor=#6c8ebf;" edge="1" parent="1">
          <mxGeometry width="50" height="50" relative="1" as="geometry">
            <mxPoint x="870" y="1295" as="sourcePoint" />
            <mxPoint x="870" y="1325" as="targetPoint" />
          </mxGeometry>
        </mxCell>
        <mxCell id="Lpg7j5DV8L_S_n1q0605-341" value="" style="shape=flexArrow;endArrow=classic;html=1;rounded=0;fillColor=#f8cecc;strokeColor=#b85450;" edge="1" parent="1">
          <mxGeometry width="50" height="50" relative="1" as="geometry">
            <mxPoint x="940" y="1270" as="sourcePoint" />
            <mxPoint x="1100" y="1320" as="targetPoint" />
          </mxGeometry>
        </mxCell>
        <mxCell id="Lpg7j5DV8L_S_n1q0605-342" value="&lt;b&gt;Total Weighted Adv&lt;/b&gt;" style="shape=process;whiteSpace=wrap;html=1;backgroundOutline=1;" vertex="1" parent="1">
          <mxGeometry x="812" y="1440" width="120" height="60" as="geometry" />
        </mxCell>
        <mxCell id="Lpg7j5DV8L_S_n1q0605-343" value="" style="shape=flexArrow;endArrow=classic;html=1;rounded=0;fillColor=#e1d5e7;strokeColor=#9673a6;" edge="1" parent="1">
          <mxGeometry width="50" height="50" relative="1" as="geometry">
            <mxPoint x="632" y="1400" as="sourcePoint" />
            <mxPoint x="802" y="1450" as="targetPoint" />
          </mxGeometry>
        </mxCell>
        <mxCell id="Lpg7j5DV8L_S_n1q0605-344" value="" style="shape=flexArrow;endArrow=classic;html=1;rounded=0;fillColor=#dae8fc;strokeColor=#6c8ebf;" edge="1" parent="1">
          <mxGeometry width="50" height="50" relative="1" as="geometry">
            <mxPoint x="872" y="1400" as="sourcePoint" />
            <mxPoint x="872" y="1430" as="targetPoint" />
          </mxGeometry>
        </mxCell>
        <mxCell id="Lpg7j5DV8L_S_n1q0605-345" value="" style="shape=flexArrow;endArrow=classic;html=1;rounded=0;fillColor=#f8cecc;strokeColor=#b85450;" edge="1" parent="1">
          <mxGeometry width="50" height="50" relative="1" as="geometry">
            <mxPoint x="1115" y="1400" as="sourcePoint" />
            <mxPoint x="945" y="1450" as="targetPoint" />
          </mxGeometry>
        </mxCell>
        <mxCell id="Lpg7j5DV8L_S_n1q0605-347" value="" style="shape=flexArrow;endArrow=classic;html=1;rounded=0;fillColor=#008a00;strokeColor=#005700;" edge="1" parent="1">
          <mxGeometry width="50" height="50" relative="1" as="geometry">
            <mxPoint x="871.55" y="1510" as="sourcePoint" />
            <mxPoint x="871.55" y="1540" as="targetPoint" />
          </mxGeometry>
        </mxCell>
        <mxCell id="Lpg7j5DV8L_S_n1q0605-348" value="" style="strokeWidth=2;html=1;shape=mxgraph.flowchart.annotation_2;align=left;labelPosition=right;pointerEvents=1;rotation=90;" vertex="1" parent="1">
          <mxGeometry x="410" y="-180" width="50" height="560" as="geometry" />
        </mxCell>
        <mxCell id="Lpg7j5DV8L_S_n1q0605-349" value="&lt;b style=&quot;font-size: 18px;&quot;&gt;Batch&lt;/b&gt;" style="text;html=1;align=center;verticalAlign=middle;whiteSpace=wrap;rounded=0;" vertex="1" parent="1">
          <mxGeometry x="385" y="20" width="100" height="30" as="geometry" />
        </mxCell>
        <mxCell id="Lpg7j5DV8L_S_n1q0605-350" value="&lt;b style=&quot;forced-color-adjust: none; font-family: Helvetica; font-style: normal; font-variant-ligatures: normal; font-variant-caps: normal; letter-spacing: normal; orphans: 2; text-align: center; text-indent: 0px; text-transform: none; widows: 2; word-spacing: 0px; -webkit-text-stroke-width: 0px; white-space: normal; background-color: rgb(236, 236, 236); text-decoration-thickness: initial; text-decoration-style: initial; text-decoration-color: initial;&quot;&gt;B x N x M&lt;/b&gt;" style="text;whiteSpace=wrap;html=1;fontColor=#FF0000;fontSize=26;" vertex="1" parent="1">
          <mxGeometry x="750" y="160" width="170" height="50" as="geometry" />
        </mxCell>
        <mxCell id="Lpg7j5DV8L_S_n1q0605-351" value="&lt;b style=&quot;forced-color-adjust: none; font-family: Helvetica; font-style: normal; font-variant-ligatures: normal; font-variant-caps: normal; letter-spacing: normal; orphans: 2; text-align: center; text-indent: 0px; text-transform: none; widows: 2; word-spacing: 0px; -webkit-text-stroke-width: 0px; white-space: normal; background-color: rgb(236, 236, 236); text-decoration-thickness: initial; text-decoration-style: initial; text-decoration-color: initial;&quot;&gt;B x G x N x M&lt;/b&gt;" style="text;whiteSpace=wrap;html=1;fontColor=#FF0000;fontSize=26;" vertex="1" parent="1">
          <mxGeometry x="822" y="250" width="170" height="50" as="geometry" />
        </mxCell>
        <mxCell id="Lpg7j5DV8L_S_n1q0605-352" value="&lt;b style=&quot;forced-color-adjust: none; font-family: Helvetica; font-style: normal; font-variant-ligatures: normal; font-variant-caps: normal; letter-spacing: normal; orphans: 2; text-align: center; text-indent: 0px; text-transform: none; widows: 2; word-spacing: 0px; -webkit-text-stroke-width: 0px; white-space: normal; background-color: rgb(236, 236, 236); text-decoration-thickness: initial; text-decoration-style: initial; text-decoration-color: initial;&quot;&gt;S x B x G&lt;/b&gt;" style="text;whiteSpace=wrap;html=1;fontColor=#FF0000;fontSize=26;" vertex="1" parent="1">
          <mxGeometry x="1670" y="470" width="170" height="50" as="geometry" />
        </mxCell>
        <mxCell id="Lpg7j5DV8L_S_n1q0605-353" value="&lt;b style=&quot;forced-color-adjust: none; font-family: Helvetica; font-style: normal; font-variant-ligatures: normal; font-variant-caps: normal; letter-spacing: normal; orphans: 2; text-align: center; text-indent: 0px; text-transform: none; widows: 2; word-spacing: 0px; -webkit-text-stroke-width: 0px; white-space: normal; background-color: rgb(236, 236, 236); text-decoration-thickness: initial; text-decoration-style: initial; text-decoration-color: initial;&quot;&gt;B x G&lt;/b&gt;" style="text;whiteSpace=wrap;html=1;fontColor=#FF0000;fontSize=26;" vertex="1" parent="1">
          <mxGeometry x="1600" y="667" width="170" height="50" as="geometry" />
        </mxCell>
        <mxCell id="Lpg7j5DV8L_S_n1q0605-354" value="&lt;b style=&quot;forced-color-adjust: none; font-family: Helvetica; font-style: normal; font-variant-ligatures: normal; font-variant-caps: normal; letter-spacing: normal; orphans: 2; text-align: center; text-indent: 0px; text-transform: none; widows: 2; word-spacing: 0px; -webkit-text-stroke-width: 0px; white-space: normal; background-color: rgb(236, 236, 236); text-decoration-thickness: initial; text-decoration-style: initial; text-decoration-color: initial;&quot;&gt;B x G&lt;/b&gt;" style="text;whiteSpace=wrap;html=1;fontColor=#FF0000;fontSize=26;" vertex="1" parent="1">
          <mxGeometry x="787" y="877" width="170" height="50" as="geometry" />
        </mxCell>
        <mxCell id="Lpg7j5DV8L_S_n1q0605-355" value="&lt;b style=&quot;forced-color-adjust: none; font-family: Helvetica; font-style: normal; font-variant-ligatures: normal; font-variant-caps: normal; letter-spacing: normal; orphans: 2; text-align: center; text-indent: 0px; text-transform: none; widows: 2; word-spacing: 0px; -webkit-text-stroke-width: 0px; white-space: normal; background-color: rgb(236, 236, 236); text-decoration-thickness: initial; text-decoration-style: initial; text-decoration-color: initial;&quot;&gt;B x G&lt;/b&gt;" style="text;whiteSpace=wrap;html=1;fontColor=#FF0000;fontSize=26;" vertex="1" parent="1">
          <mxGeometry x="820" y="1082" width="170" height="50" as="geometry" />
        </mxCell>
        <mxCell id="Lpg7j5DV8L_S_n1q0605-356" value="&lt;b style=&quot;forced-color-adjust: none; font-family: Helvetica; font-style: normal; font-variant-ligatures: normal; font-variant-caps: normal; letter-spacing: normal; orphans: 2; text-align: center; text-indent: 0px; text-transform: none; widows: 2; word-spacing: 0px; -webkit-text-stroke-width: 0px; white-space: normal; background-color: rgb(236, 236, 236); text-decoration-thickness: initial; text-decoration-style: initial; text-decoration-color: initial;&quot;&gt;B x G&lt;/b&gt;" style="text;whiteSpace=wrap;html=1;fontColor=#FF0000;fontSize=26;" vertex="1" parent="1">
          <mxGeometry x="1260" y="1340" width="170" height="50" as="geometry" />
        </mxCell>
        <mxCell id="Lpg7j5DV8L_S_n1q0605-357" value="&lt;b style=&quot;forced-color-adjust: none; font-family: Helvetica; font-style: normal; font-variant-ligatures: normal; font-variant-caps: normal; letter-spacing: normal; orphans: 2; text-align: center; text-indent: 0px; text-transform: none; widows: 2; word-spacing: 0px; -webkit-text-stroke-width: 0px; white-space: normal; background-color: rgb(236, 236, 236); text-decoration-thickness: initial; text-decoration-style: initial; text-decoration-color: initial;&quot;&gt;1 x 1&lt;/b&gt;" style="text;whiteSpace=wrap;html=1;fontColor=#FF0000;fontSize=26;" vertex="1" parent="1">
          <mxGeometry x="957" y="1560" width="170" height="50" as="geometry" />
        </mxCell>
      </root>
    </mxGraphModel>
  </diagram>
</mxfile>
